<svg width="20" height="20" viewBox="0 0 20 20" fill="none" xmlns="http://www.w3.org/2000/svg">
<g id="Search by Streamlinehq">
<path id="Vector (Stroke)" fill-rule="evenodd" clip-rule="evenodd" d="M1.12899 5.44148C1.90282 3.52376 3.40677 1.992 5.30999 1.18315C7.2132 0.374304 9.35978 0.354634 11.2775 1.12847C13.1952 1.9023 14.727 3.40625 15.5358 5.30947C16.3447 7.21268 16.3643 9.35926 15.5905 11.277C14.8167 13.1947 13.3127 14.7265 11.4095 15.5353C9.50629 16.3441 7.35972 16.3638 5.442 15.59C3.52428 14.8162 1.99252 13.3122 1.18367 11.409C0.374825 9.50577 0.355154 7.3592 1.12899 5.44148ZM6.09225 3.02382C4.67721 3.6252 3.55903 4.76406 2.98368 6.18988C2.40834 7.61571 2.42296 9.21168 3.02434 10.6267C3.62572 12.0418 4.76458 13.1599 6.19041 13.7353C7.61623 14.3106 9.2122 14.296 10.6272 13.6946C12.0423 13.0933 13.1605 11.9544 13.7358 10.5286C14.3112 9.10275 14.2965 7.50677 13.6952 6.09173C13.0938 4.67669 11.9549 3.55851 10.5291 2.98316C9.10327 2.40782 7.50729 2.42244 6.09225 3.02382Z" fill="#666666"/>
<path id="Vector (Stroke)_2" fill-rule="evenodd" clip-rule="evenodd" d="M12.4587 12.4579C12.8493 12.0674 13.4824 12.0674 13.8729 12.458L19.1447 17.7305C19.5352 18.121 19.5351 18.7542 19.1446 19.1447C18.754 19.5352 18.1209 19.5351 17.7304 19.1446L12.4586 13.8721C12.0681 13.4815 12.0682 12.8484 12.4587 12.4579Z" fill="#666666"/>
</g>
</svg>
