<svg width="24" height="24" viewBox="0 0 24 24" fill="none" xmlns="http://www.w3.org/2000/svg">
    <g clip-path="url(#clip0_3814_6085)">
        <path
            d="M7.0347 13.6913C7.06908 13.7826 7.12733 13.8607 7.20206 13.9157C7.2768 13.9706 7.36467 14 7.45457 14L16.5451 14C16.6351 14.0001 16.723 13.9708 16.7978 13.9159C16.8726 13.8609 16.9309 13.7828 16.9654 13.6914C16.9998 13.6 17.0088 13.4994 16.9912 13.4024C16.9737 13.3053 16.9303 13.2162 16.8667 13.1463L12.3214 8.14663C12.2792 8.10015 12.2291 8.06327 12.1739 8.03811C12.1187 8.01295 12.0596 8 11.9998 8C11.9401 8 11.881 8.01295 11.8258 8.03811C11.7706 8.06327 11.7205 8.10015 11.6783 8.14663L7.13299 13.1463C7.06944 13.2163 7.02619 13.3054 7.00869 13.4024C6.99119 13.4994 7.00024 13.5999 7.0347 13.6913Z"
            fill="white" />
    </g>
    <defs>
        <clipPath id="clip0_3814_6085">
            <rect width="24" height="24" fill="white" transform="matrix(-1 0 0 -1 24 24)" />
        </clipPath>
    </defs>
</svg>