<svg width="25" height="25" viewBox="0 0 25 25" fill="none" xmlns="http://www.w3.org/2000/svg">
<g clip-path="url(#clip0_831_15481)">
<path d="M12.2686 2.50586C10.3402 2.50586 8.45513 3.07769 6.85175 4.14903C5.24837 5.22037 3.99869 6.74312 3.26073 8.5247C2.52278 10.3063 2.3297 12.2667 2.7059 14.158C3.08211 16.0493 4.01071 17.7866 5.37427 19.1502C6.73783 20.5137 8.47511 21.4423 10.3664 21.8185C12.2577 22.1947 14.2181 22.0016 15.9997 21.2637C17.7813 20.5257 19.304 19.276 20.3754 17.6727C21.4467 16.0693 22.0186 14.1842 22.0186 12.2559C22.0158 9.67084 20.9877 7.19247 19.1598 5.36458C17.3319 3.53669 14.8536 2.50859 12.2686 2.50586ZM12.2686 18.2559C12.0461 18.2559 11.8285 18.1899 11.6435 18.0663C11.4585 17.9426 11.3143 17.7669 11.2292 17.5614C11.144 17.3558 11.1218 17.1296 11.1652 16.9114C11.2086 16.6932 11.3157 16.4927 11.4731 16.3354C11.6304 16.178 11.8309 16.0709 12.0491 16.0275C12.2673 15.9841 12.4935 16.0063 12.6991 16.0915C12.9046 16.1766 13.0803 16.3208 13.204 16.5058C13.3276 16.6908 13.3936 16.9084 13.3936 17.1309C13.3936 17.4292 13.275 17.7154 13.0641 17.9264C12.8531 18.1373 12.5669 18.2559 12.2686 18.2559ZM13.0186 13.6884L13.0186 13.7559C13.0186 13.9548 12.9395 14.1455 12.7989 14.2862C12.6582 14.4268 12.4675 14.5059 12.2686 14.5059C12.0696 14.5059 11.8789 14.4268 11.7382 14.2862C11.5976 14.1455 11.5186 13.9548 11.5186 13.7559L11.5186 13.0059C11.5186 12.8069 11.5976 12.6162 11.7382 12.4755C11.8789 12.3349 12.0696 12.2559 12.2686 12.2559C13.5089 12.2559 14.5186 11.4121 14.5186 10.3809C14.5186 9.34961 13.5089 8.50586 12.2686 8.50586C11.0282 8.50586 10.0186 9.34961 10.0186 10.3809L10.0186 10.7559C10.0186 10.9548 9.93954 11.1455 9.79889 11.2862C9.65824 11.4268 9.46747 11.5059 9.26856 11.5059C9.06965 11.5059 8.87888 11.4268 8.73823 11.2862C8.59758 11.1455 8.51856 10.9548 8.51856 10.7559L8.51856 10.3809C8.51856 8.51992 10.2004 7.00586 12.2686 7.00586C14.3367 7.00586 16.0186 8.51992 16.0186 10.3809C16.0186 12.0102 14.7286 13.3743 13.0186 13.6884Z" fill="white"/>
</g>
<defs>
<clipPath id="clip0_831_15481">
<rect width="24" height="24" fill="white" transform="translate(0.268555 0.255859)"/>
</clipPath>
</defs>
</svg>
