<svg width="32" height="24" viewBox="0 0 32 24" fill="none" xmlns="http://www.w3.org/2000/svg">
<path d="M27.1687 1.98947C25.1618 1.06863 23.0098 0.390197 20.7597 0.00162999C20.7187 -0.00586923 20.6777 0.0128717 20.6566 0.0503545C20.3799 0.54262 20.0733 1.18482 19.8586 1.68959C17.4384 1.32727 15.0307 1.32727 12.6602 1.68959C12.4455 1.1736 12.1278 0.54262 11.8497 0.0503545C11.8286 0.0141223 11.7877 -0.00461862 11.7467 0.00162999C9.49783 0.388955 7.34577 1.06739 5.33765 1.98947C5.32027 1.99696 5.30537 2.00947 5.29548 2.0257C1.21346 8.12415 0.0952229 14.0727 0.643792 19.9475C0.646274 19.9762 0.662408 20.0037 0.684748 20.0212C3.37795 21.999 5.98677 23.1998 8.54715 23.9956C8.58813 24.0081 8.63154 23.9931 8.65762 23.9594C9.26328 23.1323 9.80317 22.2602 10.2661 21.3431C10.2934 21.2894 10.2673 21.2257 10.2115 21.2044C9.35512 20.8796 8.5397 20.4835 7.75532 20.0337C7.69328 19.9975 7.68831 19.9087 7.74539 19.8663C7.91045 19.7426 8.07556 19.6139 8.23317 19.4839C8.26168 19.4602 8.30142 19.4552 8.33495 19.4702C13.488 21.8229 19.0668 21.8229 24.159 19.4702C24.1925 19.454 24.2323 19.459 24.262 19.4827C24.4197 19.6126 24.5847 19.7426 24.7511 19.8663C24.8081 19.9087 24.8044 19.9975 24.7424 20.0337C23.958 20.4922 23.1426 20.8796 22.285 21.2032C22.2291 21.2244 22.2043 21.2894 22.2316 21.3431C22.7044 22.2589 23.2443 23.131 23.8388 23.9582C23.8637 23.9931 23.9083 24.0081 23.9493 23.9956C26.5221 23.1998 29.1309 21.999 31.8241 20.0212C31.8477 20.0037 31.8626 19.9775 31.8651 19.9487C32.5216 13.1568 30.7654 7.25706 27.2097 2.02694C27.201 2.00947 27.1861 1.99696 27.1687 1.98947ZM11.0356 16.3704C9.48418 16.3704 8.20585 14.946 8.20585 13.1968C8.20585 11.4476 9.45939 10.0233 11.0356 10.0233C12.6242 10.0233 13.8901 11.4601 13.8653 13.1968C13.8653 14.946 12.6118 16.3704 11.0356 16.3704ZM21.4981 16.3704C19.9467 16.3704 18.6684 14.946 18.6684 13.1968C18.6684 11.4476 19.9219 10.0233 21.4981 10.0233C23.0867 10.0233 24.3526 11.4601 24.3278 13.1968C24.3278 14.946 23.0867 16.3704 21.4981 16.3704Z" fill="white"/>
</svg>
