<svg width="26" height="24" viewBox="0 0 26 24" fill="none" xmlns="http://www.w3.org/2000/svg">
<path fill-rule="evenodd" clip-rule="evenodd" d="M8.41423 0.568359H0.773109L10.1786 13.1444L0.65625 23.4314H3.29992L11.3599 14.7241L17.8721 23.4314H25.5132L15.5864 10.1584L24.4634 0.568359H21.8197L14.4051 8.57874L8.41423 0.568359ZM1.11392 23.2314L10.4386 13.1581L1.17243 0.768359H8.31406L8.31421 0.768555H1.17277L10.4389 13.1582L1.11444 23.2314H1.11392ZM11.3765 14.4123L17.9723 23.2314H17.9725L11.3766 14.4122L11.3765 14.4123ZM24.0056 0.768555L24.0057 0.768359H21.9071L14.3889 8.89071L14.3891 8.89102L21.9075 0.768555H24.0056ZM18.7466 21.6853H22.0273L7.53961 2.31439H7.5398L22.0276 21.6855H18.7467L18.7466 21.6853ZM18.8466 21.4853L4.65792 2.51419H7.4393L21.628 21.4853H18.8466Z" fill="white"/>
</svg>
