<svg width="16" height="17" viewBox="0 0 16 17" fill="none" xmlns="http://www.w3.org/2000/svg">
<g id="aptos-apt-logo 1" clip-path="url(#clip0_441_14952)">
<path id="Vector" d="M12.3914 5.85316H10.976C10.8124 5.85316 10.6555 5.78334 10.5454 5.66031L9.97121 5.01526C9.88441 4.91883 9.76424 4.8623 9.63405 4.8623C9.50386 4.8623 9.38368 4.91883 9.29689 5.01526L8.80284 5.57053C8.6426 5.75009 8.40893 5.85649 8.16858 5.85649H0.420613C0.200292 6.47827 0.0567494 7.13994 0 7.82822H7.314C7.44419 7.82822 7.56436 7.77502 7.65449 7.68192L8.33549 6.97369C8.41894 6.88392 8.53912 6.83404 8.65929 6.83404H8.686C8.81619 6.83404 8.93636 6.89057 9.02316 6.98699L9.59733 7.63205C9.70749 7.75507 9.86438 7.8249 10.028 7.8249H15.9967C15.9399 7.13994 15.7964 6.47494 15.576 5.84984L12.3914 5.85316Z" fill="white"/>
<path id="Vector_2" d="M4.4264 11.9781C4.55659 11.9781 4.67677 11.9249 4.7669 11.8318L5.44789 11.1236C5.53468 11.0338 5.65152 10.984 5.77503 10.984H5.80174C5.93193 10.984 6.05544 11.0405 6.1389 11.1336L6.71307 11.7786C6.82323 11.9017 6.98013 11.9715 7.1437 11.9715H15.2355C15.5393 11.3464 15.7596 10.6781 15.8931 9.97649H8.12513C7.96156 9.97649 7.80466 9.90666 7.6945 9.78364L7.12033 9.14523C7.03354 9.04881 6.91336 8.99561 6.78317 8.99561C6.65298 8.99561 6.52947 9.05213 6.44601 9.14523L5.95196 9.70051C5.79173 9.88339 5.55805 9.98646 5.31436 9.98646H0.110107C0.243635 10.688 0.463957 11.3564 0.767733 11.9815L4.4264 11.9781Z" fill="white"/>
<path id="Vector_3" d="M10.1648 3.69534C10.295 3.69534 10.4152 3.64214 10.5053 3.54904L11.1863 2.84081C11.2698 2.75104 11.39 2.70116 11.5135 2.70116H11.5402C11.6704 2.70116 11.7905 2.75769 11.8773 2.85412L12.4515 3.50249C12.5617 3.62552 12.7186 3.69534 12.8821 3.69534H14.421C12.9556 1.75353 10.6255 0.5 8.00168 0.5C5.37785 0.5 3.04445 1.75353 1.57898 3.69534H10.1648Z" fill="white"/>
<path id="Vector_4" d="M7.07698 13.9563H4.97391C4.81034 13.9563 4.65344 13.8865 4.54328 13.7634L3.96911 13.1184C3.88232 13.022 3.76214 12.9688 3.63195 12.9688C3.50176 12.9688 3.37825 13.0253 3.29479 13.1184L2.80074 13.6737C2.64051 13.8565 2.40683 13.9596 2.16314 13.9596H2.12976C3.59523 15.5224 5.68161 16.5032 8.00166 16.5032C10.3217 16.5032 12.4047 15.5224 13.8736 13.9596L7.07698 13.9563Z" fill="white"/>
</g>
<defs>
<clipPath id="clip0_441_14952">
<rect width="16" height="16" fill="white" transform="translate(0 0.5)"/>
</clipPath>
</defs>
</svg>
