<svg xmlns="http://www.w3.org/2000/svg" width="32" height="35" viewBox="0 0 32 35" fill="none">
  <path d="M16 1.60596L29.8564 9.60596V25.606L16 33.606L2.14359 25.606L2.14359 9.60596L16 1.60596Z" fill="url(#paint0_linear_3477_10993)"/>
  <path fill-rule="evenodd" clip-rule="evenodd" d="M17.467 0.605394L29.9901 7.83559C30.8977 8.35958 31.4568 9.32796 31.4568 10.3759V24.8363C31.4568 25.8843 30.8977 26.8527 29.9901 27.3767L17.467 34.6069C16.5594 35.1309 15.4413 35.1309 14.5337 34.6069L2.01061 27.3767C1.10304 26.8527 0.543945 25.8843 0.543945 24.8363L0.543945 10.3759C0.543945 9.32796 1.10304 8.35958 2.01061 7.83559L14.5337 0.605394C15.4413 0.0814048 16.5594 0.0814052 17.467 0.605394ZM16.667 1.99104C16.2545 1.75286 15.7462 1.75286 15.3337 1.99104L2.81061 9.22124C2.39808 9.45941 2.14395 9.89958 2.14395 10.3759L2.14395 24.8363C2.14395 25.3127 2.39808 25.7529 2.81061 25.991L15.3337 33.2212C15.7462 33.4594 16.2545 33.4594 16.667 33.2212L29.1901 25.991C29.6026 25.7529 29.8568 25.3127 29.8568 24.8363V10.3759C29.8568 9.89958 29.6026 9.45941 29.1901 9.22124L16.667 1.99104Z" fill="white"/>
  <path d="M10.1859 11.335H17.4981C17.7505 11.335 17.9551 11.5396 17.9551 11.792V19.1042C17.9551 19.3566 17.7505 19.5612 17.4981 19.5612H10.1859C9.93348 19.5612 9.72887 19.3566 9.72887 19.1042V11.792C9.72887 11.5396 9.93348 11.335 10.1859 11.335Z" stroke="#4D376E" stroke-width="1.33676" stroke-linecap="round" stroke-linejoin="round"/>
  <path d="M12.1966 20.2009V21.5719C12.1966 21.6931 12.2448 21.8094 12.3305 21.8951C12.4162 21.9808 12.5324 22.0289 12.6537 22.0289H19.9658C20.087 22.0289 20.2033 21.9808 20.289 21.8951C20.3747 21.8094 20.4229 21.6931 20.4229 21.5719V14.2597C20.4229 14.1385 20.3747 14.0223 20.289 13.9366C20.2033 13.8509 20.087 13.8027 19.9658 13.8027H18.5948" stroke="#4D376E" stroke-width="1.33676" stroke-linecap="round" stroke-linejoin="round"/>
  <path d="M14.6644 22.6687V24.0397C14.6644 24.1609 14.7126 24.2772 14.7983 24.3629C14.884 24.4486 15.0002 24.4967 15.1214 24.4967H22.4336C22.5548 24.4967 22.6711 24.4486 22.7568 24.3629C22.8425 24.2772 22.8906 24.1609 22.8906 24.0397V16.7275C22.8906 16.6063 22.8425 16.4901 22.7568 16.4044C22.6711 16.3187 22.5548 16.2705 22.4336 16.2705H21.0626" stroke="#4D376E" stroke-width="1.33676" stroke-linecap="round" stroke-linejoin="round"/>
  <defs>
    <linearGradient id="paint0_linear_3477_10993" x1="55.7543" y1="14.0427" x2="-12.5335" y2="45.4463" gradientUnits="userSpaceOnUse">
      <stop stop-color="#F1C6DD"/>
      <stop offset="0.139053" stop-color="#C1A4E8"/>
      <stop offset="0.238718" stop-color="#B8E2FB"/>
      <stop offset="0.374927" stop-color="#F2EFE8"/>
      <stop offset="0.477914" stop-color="#F9DCDD"/>
      <stop offset="0.557645" stop-color="#E1C1E5"/>
      <stop offset="0.624089" stop-color="#D1C5F4"/>
      <stop offset="0.720431" stop-color="#C7EDEB"/>
      <stop offset="0.830062" stop-color="#E7F5EB"/>
      <stop offset="0.913116" stop-color="#F2F0E7"/>
      <stop offset="1" stop-color="#DDC1E1"/>
    </linearGradient>
  </defs>
</svg>