<svg width="111" height="119" viewBox="0 0 111 119" fill="none" xmlns="http://www.w3.org/2000/svg">
<path d="M44.0658 8.7315C49.362 6.39337 52.0101 5.22431 55.276 5.26366C58.5419 5.30301 61.239 6.57219 66.6331 9.11056C77.2057 14.0858 85.0067 18.5623 93.496 24.5096C98.1679 27.7826 100.504 29.4191 102.161 32.236C103.817 35.0528 104.108 37.8424 104.688 43.4217C105.841 54.5091 105.667 63.5811 104.519 74.8021C103.929 80.5673 103.633 83.4498 102.032 86.2306C100.43 89.0114 98.1761 90.6473 93.6675 93.919C84.6961 100.429 76.7371 104.846 66.471 109.449C61.1784 111.822 58.5321 113.008 55.3432 113.019C52.1543 113.031 49.5473 111.884 44.3332 109.59C33.8946 104.997 25.9486 100.415 16.6415 93.5306C12.3111 90.3277 10.1459 88.7262 8.58202 86.0209C7.01812 83.3156 6.71952 80.7156 6.12232 75.5158C4.81233 64.1097 5.09668 54.9804 6.31535 43.5586C6.94036 37.7008 7.25286 34.7719 8.83579 32.0218C10.4187 29.2716 12.7131 27.5897 17.3018 24.2259C26.2294 17.6816 34.0004 13.1751 44.0658 8.7315Z" fill="#9264F8"/>
<path fill-rule="evenodd" clip-rule="evenodd" d="M14.1909 19.9814C23.421 13.2153 31.522 8.51663 41.9409 3.91703C42.1719 3.81503 42.4004 3.71393 42.6265 3.61388C47.2654 1.56125 50.9116 -0.0520726 55.3399 0.00128629C59.7693 0.0546574 63.4567 1.79374 68.161 4.01245C68.3962 4.12339 68.6339 4.23552 68.8744 4.3487C79.6872 9.43697 87.7534 14.0604 96.5161 20.1993C96.7175 20.3404 96.9168 20.4798 97.1142 20.6178C101.22 23.489 104.451 25.7488 106.697 29.5679C108.943 33.3864 109.343 37.259 109.85 42.1728C109.874 42.4052 109.898 42.64 109.923 42.8772C111.12 54.386 110.933 63.826 109.755 75.338C109.728 75.593 109.703 75.8453 109.678 76.0949C109.166 81.1336 108.765 85.0859 106.593 88.8571C104.422 92.627 101.3 94.8886 97.3335 97.7618C97.1439 97.8992 96.9523 98.0379 96.7589 98.1783C87.4479 104.935 79.1641 109.526 68.6244 114.251C68.3891 114.357 68.1564 114.461 67.9262 114.565C63.3072 116.64 59.6869 118.267 55.3621 118.282C51.0378 118.297 47.4558 116.718 42.8932 114.706C42.6694 114.607 42.4431 114.507 42.2143 114.407C31.4226 109.659 23.1373 104.881 13.5125 97.7617C13.3277 97.625 13.1449 97.49 12.9638 97.3563C9.14925 94.5395 6.14642 92.3221 4.02633 88.6547C1.90673 84.9881 1.49275 81.3592 0.967981 76.7591C0.943773 76.5469 0.919329 76.3327 0.894472 76.1162C-0.471437 64.2232 -0.164389 54.6897 1.08284 43.0002C1.11104 42.7359 1.1387 42.4746 1.16606 42.2161C1.70584 37.1158 2.128 33.1269 4.27513 29.3964C6.42169 25.667 9.57422 23.3601 13.5914 20.4204C13.7892 20.2757 13.989 20.1294 14.1909 19.9814ZM55.2765 5.26361C52.0106 5.22426 49.3625 6.39332 44.0663 8.73145C34.0009 13.175 26.2298 17.6815 17.3023 24.2259C12.7136 27.5896 10.4192 29.2715 8.83628 32.0217C7.25335 34.7719 6.94085 37.7008 6.31584 43.5586C5.09718 54.9804 4.81282 64.1097 6.12281 75.5158C6.72001 80.7156 7.01861 83.3155 8.58251 86.0208C10.1464 88.7261 12.3116 90.3276 16.642 93.5306C25.9491 100.415 33.895 104.997 44.3337 109.59C49.5477 111.884 52.1548 113.031 55.3437 113.019C58.5326 113.008 61.1789 111.822 66.4715 109.449C76.7376 104.846 84.6966 100.429 93.668 93.9189C98.1766 90.6472 100.431 89.0113 102.032 86.2306C103.634 83.4498 103.929 80.5672 104.519 74.802C105.668 63.581 105.842 54.509 104.688 43.4217C104.108 37.8424 103.818 35.0528 102.161 32.2359C100.504 29.4191 98.1684 27.7826 93.4965 24.5095C85.0072 18.5622 77.2062 14.0858 66.6336 9.11051C61.2395 6.57215 58.5424 5.30296 55.2765 5.26361Z" fill="white"/>
<path d="M53.7123 91.5079C53.8599 91.8979 53.5718 92.3149 53.1549 92.3149L36.9835 92.3149C34.3012 92.3149 31.9493 90.5233 31.237 87.9373L27.0864 72.8685C26.8623 72.0553 27.4742 71.2521 28.3177 71.2521L34.3766 71.2521C34.9488 71.2521 35.4513 71.6328 35.6061 72.1837L39.1576 84.818C39.519 86.1035 40.6913 86.9918 42.0266 86.9918L51.1211 86.9918C51.6521 86.9918 52.1277 87.3203 52.3157 87.817L53.7123 91.5079Z" fill="white"/>
<path d="M36.8861 31.9263H52.3804C52.9428 31.9263 53.439 32.2941 53.6025 32.8322L57.1093 44.3722C58.5808 49.2148 63.0466 52.5251 68.1078 52.5251H74.1275C75.7038 52.5251 77.083 53.5849 77.4891 55.1079L82.4702 73.7908C83.2946 76.8828 80.964 79.916 77.7641 79.916H44.977C44.4054 79.916 43.9034 79.5362 43.7479 78.9861L32.1992 38.1214C31.3207 35.0131 33.6561 31.9263 36.8861 31.9263Z" fill="white"/>
<path d="M57.812 27.5764C57.5662 26.7569 58.1798 25.9321 59.0354 25.9321H72.564C75.0969 25.9321 77.3531 27.5329 78.1899 29.9235L83.5009 45.0981C83.7916 45.9285 83.1752 46.7972 82.2954 46.7972H70.2304C66.2821 46.7972 62.8013 44.2074 61.6668 40.4256L57.812 27.5764Z" fill="white"/>
</svg>
