<svg width="512" height="512" viewBox="0 0 512 512" fill="none" xmlns="http://www.w3.org/2000/svg">
<g clip-path="url(#clip0_949_4657)">
<path d="M256 512C397.385 512 512 397.385 512 256C512 114.615 397.385 0 256 0C114.615 0 0 114.615 0 256C0 397.385 114.615 512 256 512Z" fill="url(#paint0_radial_949_4657)"/>
<path d="M180.33 219.735C180.33 187.042 180.451 154.349 180.229 121.666C180.189 116.373 181.89 114.421 187.112 113.676C204.53 111.18 221.888 108.282 239.236 105.314C243.714 104.549 245.183 105.757 245.132 110.365C244.941 127.794 245.062 145.232 245.082 162.67C245.082 168.815 248.077 171.891 254.068 171.898C274.857 171.898 295.646 171.888 316.435 171.918C322.986 171.928 323.137 172.109 323.147 178.76C323.167 192.677 323.046 206.593 323.227 220.499C323.278 224.675 321.738 226.024 317.653 226.004C295.354 225.873 273.056 226.004 250.757 225.913C247.125 225.903 245.082 226.758 245.112 230.894C245.324 258.717 245.364 286.54 245.635 314.372C245.676 318.186 246.41 322.05 247.235 325.803C251.059 343.242 260.317 350.94 278.147 351.523C291.842 351.966 305.236 349.953 318.267 345.757C321.728 344.64 323.519 345.083 324.193 349.028C326.538 362.904 329.033 376.76 331.619 390.606C332.183 393.635 331.388 395.265 328.48 396.362C298.454 407.712 267.602 410.218 236.579 402.419C206.382 394.832 188.923 374.264 183.721 343.755C181.759 332.243 180.662 320.46 180.491 308.788C180.048 279.124 180.34 249.439 180.35 219.765L180.33 219.735Z" fill="white"/>
</g>
<defs>
<radialGradient id="paint0_radial_949_4657" cx="0" cy="0" r="1" gradientUnits="userSpaceOnUse" gradientTransform="translate(410.047 398.475) rotate(-142.412) scale(457.779)">
<stop offset="0.142317" stop-color="#9877FF"/>
<stop offset="0.53125" stop-color="#A858FF"/>
</radialGradient>
<clipPath id="clip0_949_4657">
<rect width="512" height="512" fill="white"/>
</clipPath>
</defs>
</svg>
