<svg width="155" height="18" viewBox="0 0 155 18" fill="none" xmlns="http://www.w3.org/2000/svg">
<path d="M5.39753 17.0732V1.65825H7.54739V17.0732H5.39753ZM0 3.16773V1.20083H12.922V3.16773H0Z" fill="url(#paint0_linear_512_16247)"/>
<path d="M21.5494 17.3019C20.4211 17.3019 19.369 17.0961 18.3932 16.6844C17.4174 16.2575 16.5635 15.6705 15.8317 14.9234C15.0998 14.161 14.528 13.2843 14.1163 12.2932C13.7199 11.3021 13.5217 10.2425 13.5217 9.11416C13.5217 7.97061 13.7199 6.91093 14.1163 5.93511C14.528 4.94404 15.0922 4.07494 15.8088 3.32783C16.5406 2.58071 17.3869 2.00131 18.3474 1.58964C19.3233 1.17796 20.3753 0.972125 21.5036 0.972125C22.6319 0.972125 23.6764 1.17796 24.6369 1.58964C25.6128 2.00131 26.4666 2.58071 27.1985 3.32783C27.9303 4.07494 28.5021 4.94404 28.9138 5.93511C29.3255 6.92618 29.5313 7.99348 29.5313 9.13703C29.5313 10.2653 29.3255 11.325 28.9138 12.3161C28.5021 13.3072 27.9303 14.1762 27.1985 14.9234C26.4819 15.6705 25.6356 16.2575 24.6598 16.6844C23.6992 17.0961 22.6624 17.3019 21.5494 17.3019ZM21.5036 15.2436C22.6472 15.2436 23.6459 14.9843 24.4997 14.4659C25.3688 13.9323 26.0549 13.208 26.5581 12.2932C27.0613 11.3631 27.3128 10.3034 27.3128 9.11416C27.3128 8.22982 27.168 7.42171 26.8783 6.68985C26.5886 5.94273 26.1845 5.29472 25.6661 4.74582C25.1477 4.19692 24.5378 3.77762 23.8365 3.48792C23.1351 3.18298 22.3575 3.0305 21.5036 3.0305C20.3753 3.0305 19.3766 3.28971 18.5075 3.80811C17.6537 4.32652 16.9752 5.04314 16.472 5.95798C15.9841 6.87281 15.7402 7.92487 15.7402 9.11416C15.7402 9.9985 15.8774 10.8218 16.1518 11.5842C16.4415 12.3313 16.838 12.9793 17.3411 13.5282C17.8595 14.0619 18.4694 14.4812 19.1708 14.7861C19.8874 15.0911 20.665 15.2436 21.5036 15.2436Z" fill="url(#paint1_linear_512_16247)"/>
<path d="M35.7915 17.0732L30.5998 1.20083H32.7497L36.8664 14.1458H36.2489L40.2971 1.20083H41.8523L45.9004 14.1458H45.3058L49.4225 1.20083H51.5495L46.3807 17.0732H44.8484L40.7773 4.15118H41.372L37.3238 17.0732H35.7915Z" fill="url(#paint2_linear_512_16247)"/>
<path d="M54.1899 17.0732V1.20083H55.6993L56.3397 3.69376V17.0732H54.1899ZM65.1679 17.0732L55.4249 4.05969L55.6993 1.20083L65.4652 14.1915L65.1679 17.0732ZM65.1679 17.0732L64.5275 14.7175V1.20083H66.6774V17.0732H65.1679Z" fill="url(#paint3_linear_512_16247)"/>
<path d="M70.5 17.0732V14.8517H80.0481V17.0732H70.5ZM70.5 10.1748V8.01636H79.9337V10.1748H70.5ZM70.5 3.39038V1.20083H79.9337V3.39038H70.5Z" fill="url(#paint4_linear_512_16247)"/>
<path d="M89.8754 17.3248C88.5489 17.3248 87.4054 17.1113 86.4448 16.6844C85.4995 16.2422 84.6303 15.579 83.8375 14.6947L86.1703 12.3847C86.6887 12.9793 87.2605 13.4444 87.8856 13.7798C88.526 14.1 89.2655 14.2601 90.1041 14.2601C90.8665 14.2601 91.4535 14.1229 91.8652 13.8484C92.2921 13.574 92.5055 13.1928 92.5055 12.7049C92.5055 12.2627 92.3683 11.9044 92.0939 11.63C91.8194 11.3555 91.4535 11.1192 90.9961 10.921C90.5539 10.7227 90.0584 10.5322 89.5095 10.3492C88.9758 10.1662 88.4422 9.96038 87.9085 9.73167C87.3749 9.48772 86.8793 9.19039 86.4219 8.83971C85.9797 8.47377 85.6214 8.02398 85.347 7.49033C85.0725 6.94142 84.9353 6.2553 84.9353 5.43195C84.9353 4.44088 85.1716 3.58703 85.6443 2.87041C86.1322 2.15379 86.8031 1.61251 87.6569 1.24658C88.5108 0.865395 89.4942 0.674805 90.6073 0.674805C91.7356 0.674805 92.7648 0.873019 93.6948 1.26945C94.6402 1.66588 95.4178 2.20715 96.0277 2.89328L93.6948 5.20324C93.2069 4.70008 92.7114 4.32652 92.2082 4.08257C91.7203 3.83861 91.1638 3.71663 90.5387 3.71663C89.9135 3.71663 89.418 3.83861 89.0521 4.08257C88.6861 4.31127 88.5032 4.64671 88.5032 5.08888C88.5032 5.50056 88.6404 5.836 88.9148 6.0952C89.1893 6.33916 89.5476 6.55262 89.9898 6.73559C90.4472 6.91855 90.9427 7.10152 91.4764 7.28449C92.0253 7.46745 92.5665 7.68092 93.1002 7.92487C93.6339 8.16883 94.1218 8.4814 94.5639 8.86258C95.0214 9.22851 95.3873 9.70118 95.6617 10.2806C95.9362 10.8447 96.0734 11.5461 96.0734 12.3847C96.0734 13.9247 95.5245 15.1368 94.4267 16.0212C93.3289 16.8903 91.8118 17.3248 89.8754 17.3248Z" fill="url(#paint5_linear_512_16247)"/>
<path d="M101.105 11.1954V8.40516H104.582C105.024 8.40516 105.428 8.31368 105.794 8.13071C106.16 7.94774 106.449 7.68092 106.663 7.33023C106.876 6.97954 106.983 6.55262 106.983 6.04946C106.983 5.56155 106.876 5.14225 106.663 4.79156C106.449 4.44088 106.16 4.17405 105.794 3.99108C105.428 3.80811 105.024 3.71663 104.582 3.71663H101.105V0.926384H105.108C106.129 0.926384 107.052 1.13222 107.875 1.5439C108.698 1.95557 109.346 2.55022 109.819 3.32783C110.307 4.09019 110.551 4.9974 110.551 6.04946C110.551 7.10152 110.307 8.01636 109.819 8.79397C109.346 9.55633 108.698 10.151 107.875 10.5779C107.052 10.9896 106.129 11.1954 105.108 11.1954H101.105ZM98.3607 17.0732V0.926384H101.951V17.0732H98.3607Z" fill="url(#paint6_linear_512_16247)"/>
<path d="M110.237 17.0732L116.641 0.926384H119.888L126.223 17.0732H122.427L117.578 3.67089H118.882L113.965 17.0732H110.237Z" fill="url(#paint7_linear_512_16247)"/>
<path d="M134.723 17.3248C133.518 17.3248 132.397 17.119 131.361 16.7073C130.339 16.2804 129.44 15.6857 128.662 14.9234C127.9 14.161 127.305 13.2767 126.878 12.2703C126.451 11.2488 126.238 10.151 126.238 8.97693C126.238 7.80289 126.451 6.71272 126.878 5.7064C127.305 4.68483 127.9 3.80049 128.662 3.05338C129.424 2.30626 130.316 1.72686 131.338 1.31519C132.375 0.888266 133.495 0.674805 134.7 0.674805C135.981 0.674805 137.117 0.880642 138.108 1.29232C139.114 1.70399 139.991 2.26814 140.738 2.98476L138.336 5.40908C137.909 4.95166 137.391 4.59335 136.781 4.33414C136.186 4.07494 135.493 3.94534 134.7 3.94534C133.998 3.94534 133.35 4.06732 132.756 4.31127C132.176 4.53998 131.673 4.87542 131.246 5.31759C130.835 5.75976 130.507 6.29342 130.263 6.91855C130.034 7.54369 129.92 8.22982 129.92 8.97693C129.92 9.7393 130.034 10.433 130.263 11.0582C130.507 11.6833 130.835 12.217 131.246 12.6591C131.673 13.1013 132.176 13.4444 132.756 13.6883C133.35 13.9323 133.998 14.0543 134.7 14.0543C135.523 14.0543 136.24 13.9247 136.85 13.6655C137.46 13.4063 137.986 13.0479 138.428 12.5905L140.852 15.0148C140.074 15.7315 139.183 16.2956 138.176 16.7073C137.185 17.119 136.034 17.3248 134.723 17.3248Z" fill="url(#paint8_linear_512_16247)"/>
<path d="M142.829 17.0732V0.926384H146.42V17.0732H142.829ZM145.574 17.0732V13.9628H154.425V17.0732H145.574ZM145.574 10.3263V7.33023H153.624V10.3263H145.574ZM145.574 4.01395V0.926384H154.311V4.01395H145.574Z" fill="url(#paint9_linear_512_16247)"/>
<defs>
<linearGradient id="paint0_linear_512_16247" x1="271" y1="-18" x2="257.194" y2="65.3981" gradientUnits="userSpaceOnUse">
<stop stop-color="#F1C6DD"/>
<stop offset="0.139053" stop-color="#C1A4E8"/>
<stop offset="0.238718" stop-color="#B8E2FB"/>
<stop offset="0.374927" stop-color="#F2EFE8"/>
<stop offset="0.477914" stop-color="#F9DCDD"/>
<stop offset="0.557645" stop-color="#E1C1E5"/>
<stop offset="0.624089" stop-color="#BDAFE3"/>
<stop offset="0.720431" stop-color="#C7EDEB"/>
<stop offset="0.830062" stop-color="#E7F5EB"/>
<stop offset="0.913116" stop-color="#F2F0E7"/>
<stop offset="1" stop-color="#DDC1E1"/>
</linearGradient>
<linearGradient id="paint1_linear_512_16247" x1="271" y1="-18" x2="257.194" y2="65.3981" gradientUnits="userSpaceOnUse">
<stop stop-color="#F1C6DD"/>
<stop offset="0.139053" stop-color="#C1A4E8"/>
<stop offset="0.238718" stop-color="#B8E2FB"/>
<stop offset="0.374927" stop-color="#F2EFE8"/>
<stop offset="0.477914" stop-color="#F9DCDD"/>
<stop offset="0.557645" stop-color="#E1C1E5"/>
<stop offset="0.624089" stop-color="#BDAFE3"/>
<stop offset="0.720431" stop-color="#C7EDEB"/>
<stop offset="0.830062" stop-color="#E7F5EB"/>
<stop offset="0.913116" stop-color="#F2F0E7"/>
<stop offset="1" stop-color="#DDC1E1"/>
</linearGradient>
<linearGradient id="paint2_linear_512_16247" x1="271" y1="-18" x2="257.194" y2="65.3981" gradientUnits="userSpaceOnUse">
<stop stop-color="#F1C6DD"/>
<stop offset="0.139053" stop-color="#C1A4E8"/>
<stop offset="0.238718" stop-color="#B8E2FB"/>
<stop offset="0.374927" stop-color="#F2EFE8"/>
<stop offset="0.477914" stop-color="#F9DCDD"/>
<stop offset="0.557645" stop-color="#E1C1E5"/>
<stop offset="0.624089" stop-color="#BDAFE3"/>
<stop offset="0.720431" stop-color="#C7EDEB"/>
<stop offset="0.830062" stop-color="#E7F5EB"/>
<stop offset="0.913116" stop-color="#F2F0E7"/>
<stop offset="1" stop-color="#DDC1E1"/>
</linearGradient>
<linearGradient id="paint3_linear_512_16247" x1="271" y1="-18" x2="257.194" y2="65.3981" gradientUnits="userSpaceOnUse">
<stop stop-color="#F1C6DD"/>
<stop offset="0.139053" stop-color="#C1A4E8"/>
<stop offset="0.238718" stop-color="#B8E2FB"/>
<stop offset="0.374927" stop-color="#F2EFE8"/>
<stop offset="0.477914" stop-color="#F9DCDD"/>
<stop offset="0.557645" stop-color="#E1C1E5"/>
<stop offset="0.624089" stop-color="#BDAFE3"/>
<stop offset="0.720431" stop-color="#C7EDEB"/>
<stop offset="0.830062" stop-color="#E7F5EB"/>
<stop offset="0.913116" stop-color="#F2F0E7"/>
<stop offset="1" stop-color="#DDC1E1"/>
</linearGradient>
<linearGradient id="paint4_linear_512_16247" x1="271" y1="-18" x2="257.194" y2="65.3981" gradientUnits="userSpaceOnUse">
<stop stop-color="#F1C6DD"/>
<stop offset="0.139053" stop-color="#C1A4E8"/>
<stop offset="0.238718" stop-color="#B8E2FB"/>
<stop offset="0.374927" stop-color="#F2EFE8"/>
<stop offset="0.477914" stop-color="#F9DCDD"/>
<stop offset="0.557645" stop-color="#E1C1E5"/>
<stop offset="0.624089" stop-color="#BDAFE3"/>
<stop offset="0.720431" stop-color="#C7EDEB"/>
<stop offset="0.830062" stop-color="#E7F5EB"/>
<stop offset="0.913116" stop-color="#F2F0E7"/>
<stop offset="1" stop-color="#DDC1E1"/>
</linearGradient>
<linearGradient id="paint5_linear_512_16247" x1="271" y1="-18" x2="257.194" y2="65.3981" gradientUnits="userSpaceOnUse">
<stop stop-color="#F1C6DD"/>
<stop offset="0.139053" stop-color="#C1A4E8"/>
<stop offset="0.238718" stop-color="#B8E2FB"/>
<stop offset="0.374927" stop-color="#F2EFE8"/>
<stop offset="0.477914" stop-color="#F9DCDD"/>
<stop offset="0.557645" stop-color="#E1C1E5"/>
<stop offset="0.624089" stop-color="#BDAFE3"/>
<stop offset="0.720431" stop-color="#C7EDEB"/>
<stop offset="0.830062" stop-color="#E7F5EB"/>
<stop offset="0.913116" stop-color="#F2F0E7"/>
<stop offset="1" stop-color="#DDC1E1"/>
</linearGradient>
<linearGradient id="paint6_linear_512_16247" x1="271" y1="-18" x2="257.194" y2="65.3981" gradientUnits="userSpaceOnUse">
<stop stop-color="#F1C6DD"/>
<stop offset="0.139053" stop-color="#C1A4E8"/>
<stop offset="0.238718" stop-color="#B8E2FB"/>
<stop offset="0.374927" stop-color="#F2EFE8"/>
<stop offset="0.477914" stop-color="#F9DCDD"/>
<stop offset="0.557645" stop-color="#E1C1E5"/>
<stop offset="0.624089" stop-color="#BDAFE3"/>
<stop offset="0.720431" stop-color="#C7EDEB"/>
<stop offset="0.830062" stop-color="#E7F5EB"/>
<stop offset="0.913116" stop-color="#F2F0E7"/>
<stop offset="1" stop-color="#DDC1E1"/>
</linearGradient>
<linearGradient id="paint7_linear_512_16247" x1="271" y1="-18" x2="257.194" y2="65.3981" gradientUnits="userSpaceOnUse">
<stop stop-color="#F1C6DD"/>
<stop offset="0.139053" stop-color="#C1A4E8"/>
<stop offset="0.238718" stop-color="#B8E2FB"/>
<stop offset="0.374927" stop-color="#F2EFE8"/>
<stop offset="0.477914" stop-color="#F9DCDD"/>
<stop offset="0.557645" stop-color="#E1C1E5"/>
<stop offset="0.624089" stop-color="#BDAFE3"/>
<stop offset="0.720431" stop-color="#C7EDEB"/>
<stop offset="0.830062" stop-color="#E7F5EB"/>
<stop offset="0.913116" stop-color="#F2F0E7"/>
<stop offset="1" stop-color="#DDC1E1"/>
</linearGradient>
<linearGradient id="paint8_linear_512_16247" x1="271" y1="-18" x2="257.194" y2="65.3981" gradientUnits="userSpaceOnUse">
<stop stop-color="#F1C6DD"/>
<stop offset="0.139053" stop-color="#C1A4E8"/>
<stop offset="0.238718" stop-color="#B8E2FB"/>
<stop offset="0.374927" stop-color="#F2EFE8"/>
<stop offset="0.477914" stop-color="#F9DCDD"/>
<stop offset="0.557645" stop-color="#E1C1E5"/>
<stop offset="0.624089" stop-color="#BDAFE3"/>
<stop offset="0.720431" stop-color="#C7EDEB"/>
<stop offset="0.830062" stop-color="#E7F5EB"/>
<stop offset="0.913116" stop-color="#F2F0E7"/>
<stop offset="1" stop-color="#DDC1E1"/>
</linearGradient>
<linearGradient id="paint9_linear_512_16247" x1="271" y1="-18" x2="257.194" y2="65.3981" gradientUnits="userSpaceOnUse">
<stop stop-color="#F1C6DD"/>
<stop offset="0.139053" stop-color="#C1A4E8"/>
<stop offset="0.238718" stop-color="#B8E2FB"/>
<stop offset="0.374927" stop-color="#F2EFE8"/>
<stop offset="0.477914" stop-color="#F9DCDD"/>
<stop offset="0.557645" stop-color="#E1C1E5"/>
<stop offset="0.624089" stop-color="#BDAFE3"/>
<stop offset="0.720431" stop-color="#C7EDEB"/>
<stop offset="0.830062" stop-color="#E7F5EB"/>
<stop offset="0.913116" stop-color="#F2F0E7"/>
<stop offset="1" stop-color="#DDC1E1"/>
</linearGradient>
</defs>
</svg>
