<svg width="231" height="40" viewBox="0 0 231 40" fill="none" xmlns="http://www.w3.org/2000/svg">
<path d="M126.607 30.4715C124.942 30.4715 123.463 30.1151 122.171 29.4023C120.879 28.6672 119.849 27.6647 119.083 26.395C118.338 25.1253 117.965 23.6773 117.965 22.0512C117.965 20.4473 118.327 19.0216 119.05 17.7742C119.794 16.5045 120.802 15.502 122.072 14.7669C123.343 14.0095 124.756 13.6309 126.311 13.6309C127.844 13.6309 129.191 13.9873 130.352 14.7001C131.535 15.3907 132.455 16.3485 133.112 17.5737C133.791 18.7766 134.131 20.1466 134.131 21.6836C134.131 21.9732 134.109 22.2739 134.065 22.5858C134.043 22.8754 133.988 23.2095 133.901 23.5882L120.561 23.6216V20.3471L131.896 20.3137L130.155 21.6836C130.111 20.7258 129.936 19.9238 129.629 19.2778C129.345 18.6318 128.917 18.1417 128.348 17.8076C127.8 17.4512 127.121 17.273 126.311 17.273C125.457 17.273 124.712 17.4735 124.077 17.8744C123.441 18.2531 122.949 18.7989 122.598 19.5117C122.27 20.2023 122.105 21.0265 122.105 21.9844C122.105 22.9645 122.281 23.8221 122.631 24.5572C123.003 25.2701 123.529 25.827 124.208 26.2279C124.887 26.6066 125.676 26.796 126.574 26.796C127.384 26.796 128.118 26.6623 128.775 26.395C129.432 26.1054 130.002 25.6822 130.484 25.1253L133.014 27.6981C132.247 28.6115 131.305 29.302 130.188 29.7698C129.093 30.2376 127.899 30.4715 126.607 30.4715Z" fill="white"/>
<path d="M111.246 30.1374V20.8817C111.246 19.9239 110.95 19.1442 110.358 18.5427C109.767 17.9413 109 17.6406 108.059 17.6406C107.445 17.6406 106.898 17.7742 106.416 18.0415C105.934 18.3089 105.551 18.6875 105.266 19.1776C105.003 19.6677 104.872 20.2357 104.872 20.8817L103.196 20.013C103.196 18.7432 103.459 17.6406 103.984 16.705C104.532 15.7471 105.277 15.0009 106.219 14.4662C107.182 13.9316 108.267 13.6643 109.471 13.6643C110.632 13.6643 111.673 13.965 112.593 14.5665C113.513 15.1457 114.236 15.9142 114.761 16.8721C115.287 17.8076 115.55 18.8212 115.55 19.9127V30.1374H111.246ZM100.567 30.1374V13.9984H104.872V30.1374H100.567Z" fill="white"/>
<path d="M79.5541 30.1375L73.6072 13.9985H77.9442L81.8212 25.7268L80.507 25.7603L84.4825 13.9985H87.6039L91.5794 25.7603L90.2652 25.7268L94.1422 13.9985H98.4792L92.5651 30.1375H89.4438L85.4354 18.9772H86.651L82.6426 30.1375H79.5541Z" fill="white"/>
<path d="M64.4209 30.4715C62.8219 30.4715 61.3762 30.104 60.0839 29.3688C58.8134 28.6115 57.7949 27.5979 57.0282 26.3282C56.2835 25.0362 55.9111 23.5994 55.9111 22.0178C55.9111 20.4362 56.2835 19.0216 57.0282 17.7742C57.773 16.5045 58.7915 15.502 60.0839 14.7669C61.3762 14.0095 62.8109 13.6309 64.388 13.6309C66.0089 13.6309 67.4546 14.0095 68.725 14.7669C70.0173 15.502 71.0359 16.5045 71.7806 17.7742C72.5254 19.0216 72.8977 20.4362 72.8977 22.0178C72.8977 23.5994 72.5254 25.0362 71.7806 26.3282C71.0359 27.5979 70.0173 28.6115 68.725 29.3688C67.4546 30.104 66.0198 30.4715 64.4209 30.4715ZM64.388 26.395C65.1984 26.395 65.9103 26.2168 66.5236 25.8604C67.1589 25.4817 67.6407 24.9693 67.9693 24.3233C68.3198 23.6551 68.495 22.8977 68.495 22.0512C68.495 21.2047 68.3198 20.4584 67.9693 19.8124C67.6188 19.1664 67.137 18.6652 66.5236 18.3088C65.9103 17.9301 65.1984 17.7408 64.388 17.7408C63.5995 17.7408 62.8985 17.9301 62.2852 18.3088C61.6719 18.6652 61.19 19.1664 60.8395 19.8124C60.4891 20.4584 60.3138 21.2047 60.3138 22.0512C60.3138 22.8977 60.4891 23.6551 60.8395 24.3233C61.19 24.9693 61.6719 25.4817 62.2852 25.8604C62.8985 26.2168 63.5995 26.395 64.388 26.395Z" fill="white"/>
<path d="M46.9101 30.1374V7.28223H51.2143V30.1374H46.9101ZM43.1974 17.841V13.9984H54.927V17.841H43.1974Z" fill="white"/>
<path fill-rule="evenodd" clip-rule="evenodd" d="M193.3 21.2415C193.221 21.0452 193.177 20.8351 193.169 20.6113C192.646 19.9455 192.164 19.2372 191.724 18.4863C191.281 17.7169 190.798 16.9994 190.275 16.3337C190.339 16.2507 190.352 16.1273 190.313 15.9634C190.284 15.8733 190.224 15.834 190.133 15.8453C190.04 15.8382 189.995 15.7689 189.998 15.6373C190.168 15.5223 190.26 15.3703 190.274 15.1811C190.304 14.9712 190.353 14.7682 190.422 14.5722C190.32 14.3413 190.229 14.1934 190.147 14.1286C190.064 14.0453 189.979 13.8778 189.893 13.6261C189.818 13.6167 189.765 13.6328 189.733 13.6742C189.719 13.7134 189.675 13.7283 189.6 13.7189C189.544 13.5573 189.456 13.4371 189.336 13.3584C189.234 13.2774 189.124 13.2068 189.006 13.1465C188.886 13.0678 188.775 12.9879 188.673 12.9069C188.569 12.8075 188.497 12.6666 188.456 12.4842C188.232 12.306 187.981 12.2155 187.705 12.2125C187.446 12.2073 187.201 12.1629 186.97 12.0793C186.752 12.2565 186.587 12.4177 186.475 12.5628C186.382 12.7057 186.278 12.9154 186.164 13.192C185.969 13.2539 185.817 13.2916 185.708 13.3052C185.617 13.3166 185.491 13.3417 185.33 13.3805C185.145 13.6847 184.984 13.9485 184.845 14.1721C184.722 14.3748 184.506 14.5705 184.197 14.759L184.234 15.0637C184.093 15.1187 183.974 15.1992 183.876 15.3052C183.776 15.3926 183.677 15.4893 183.579 15.5952C183.5 15.6989 183.41 15.7944 183.31 15.8819C183.21 15.9694 183.08 16.0418 182.921 16.0991C182.807 16.3757 182.632 16.6038 182.396 16.7832C182.175 16.9419 182.018 17.1677 181.924 17.4606C181.836 17.4904 181.76 17.5467 181.696 17.6296C181.651 17.7103 181.606 17.8002 181.563 17.8993C181.517 17.98 181.461 18.0525 181.396 18.117C181.346 18.1607 181.264 18.1709 181.15 18.1476C180.732 18.7997 180.297 19.4725 179.846 20.166C179.393 20.8411 179.002 21.574 178.674 22.3647C178.361 23.1347 178.148 23.9672 178.035 24.8622C177.92 25.7388 177.998 26.6943 178.271 27.7286C178.53 28.2023 178.843 28.6506 179.207 29.0737C179.587 29.476 180.006 29.8173 180.464 30.0976C180.937 30.3571 181.456 30.5267 182.018 30.6064C182.599 30.6838 183.21 30.6356 183.853 30.4617C184.56 30.5233 185.164 30.4854 185.664 30.3481C186.183 30.2269 186.703 30.0308 187.223 29.7597C187.444 29.751 187.697 29.71 187.983 29.6368C188.267 29.5451 188.548 29.435 188.827 29.3064C189.105 29.1594 189.373 29.0134 189.632 28.8687C189.872 28.7156 190.082 28.5747 190.261 28.4459C190.725 30.1884 191.737 31.7665 193.857 31.5866C194.041 31.4293 194.482 31.1148 194.781 31.1154C194.961 31.1158 194.992 30.8244 195.03 30.4682C195.07 30.0875 195.118 29.6329 195.365 29.3815C195.747 28.992 195.305 28.5663 195.036 28.4021C195.159 28.2602 195.355 27.9114 195.156 27.6515C195.03 27.4878 194.865 26.65 194.698 25.8078C194.535 24.9791 194.37 24.1462 194.242 23.9472C194.235 23.9362 194.227 23.9258 194.219 23.9161C194.22 23.8859 194.22 23.8557 194.22 23.8256C194.218 23.5072 194.184 23.221 194.116 22.967C194.056 22.7684 193.977 22.5721 193.88 22.3781C193.782 22.184 193.677 22.0003 193.564 21.827C193.467 21.633 193.379 21.4378 193.3 21.2415ZM189.894 23.1849C189.8 23.3278 189.73 23.5053 189.682 23.7175C189.509 23.8373 189.375 23.9282 189.258 24.0078C188.995 24.1864 188.815 24.3081 188.465 24.5722C187.956 24.9357 187.331 25.2573 186.591 25.5372C186.228 25.5825 185.834 25.6785 185.409 25.8253C185.001 25.9513 184.572 26.061 184.122 26.1546C183.691 26.246 183.263 26.29 182.839 26.2867C182.594 26.2849 182.581 26.2587 182.548 26.1946C182.524 26.1477 182.489 26.0804 182.345 25.9874C182.33 25.7886 182.269 25.6617 182.217 25.551C182.151 25.4135 182.098 25.301 182.156 25.1069C182.261 24.7564 182.396 24.4209 182.56 24.1006C182.724 23.7802 182.889 23.4691 183.055 23.1671C183.134 23.0276 183.312 22.8704 183.497 22.707C183.739 22.4928 183.994 22.268 184.052 22.0587C184.139 22.0104 184.192 21.9944 184.212 22.0106C184.23 22.0083 184.274 21.9842 184.342 21.9382C184.47 21.725 184.55 21.5485 184.624 21.3877C184.752 21.1054 184.859 20.8712 185.163 20.5705C185.405 20.3311 185.53 20.1039 185.657 19.8741C185.78 19.6509 185.904 19.4253 186.138 19.1837C186.238 19.2462 186.345 19.2984 186.461 19.3402C186.592 19.3612 186.714 19.3742 186.825 19.379C186.934 19.3654 187.03 19.3253 187.114 19.2585C187.196 19.1734 187.247 19.0546 187.265 18.9024C187.387 18.9996 187.489 19.0056 187.571 18.9204C187.653 18.8352 187.708 18.7534 187.735 18.675C187.984 18.979 188.079 19.2151 188.186 19.481C188.264 19.6761 188.348 19.8873 188.505 20.1533C188.874 20.7633 189.292 21.3295 189.761 21.8521C189.783 22.0367 189.809 22.1741 189.838 22.2641C189.865 22.3357 189.933 22.4397 190.041 22.5761C190.055 22.8369 190.005 23.0398 189.894 23.1849Z" fill="#9264F8"/>
<path d="M167.933 12.8704C169.066 13.0077 170.079 13.241 170.97 13.5705C171.861 13.9 172.617 14.3394 173.238 14.8885C173.67 15.575 174.075 16.3164 174.453 17.1126C174.858 17.9089 175.155 18.7464 175.344 19.6251C175.56 20.4763 175.644 22.1077 175.617 23.0138C175.617 23.9199 175.428 23.5617 175.05 24.4953C174.267 25.4838 173.937 25.6548 172.803 26.2863C171.696 26.8904 170.495 27.3847 169.199 27.7691C167.903 28.1535 166.553 28.483 165.149 28.7576C163.772 29.0321 162.422 29.3067 161.099 29.5813C161.126 30.2128 160.498 32.8026 160.471 33.5166C160.471 34.203 160.403 34.9032 160.268 35.6171C160.16 36.3035 159.985 36.9763 159.742 37.6353C159.499 38.2943 159.175 38.8983 158.77 39.4475C158.311 39.4475 157.838 39.5024 157.352 39.6122C156.866 39.7495 156.901 39.9175 156.523 39.9999C156.334 39.8901 156.158 39.7802 155.996 39.6704C155.861 39.588 155.659 39.5331 155.389 39.5056C155.443 39.2311 155.375 38.9565 155.186 38.6819C154.997 38.3799 154.808 38.0778 154.619 37.7758C154.43 37.4737 154.295 37.1854 154.214 36.9109C154.16 36.6363 154.295 36.3754 154.619 36.1283C154.43 35.9361 154.336 35.689 154.336 35.3869C154.525 35.0574 154.687 34.6044 154.822 34.0278C154.984 33.4511 155.105 32.8882 155.186 32.3391C155.294 31.7625 155.321 31.2408 155.267 30.774C155.213 30.3072 154.943 29.964 154.457 29.7443C154.484 29.6894 154.538 29.6619 154.619 29.6619C154.7 29.6619 154.781 29.6482 154.862 29.6207C154.646 29.456 154.511 29.2226 154.457 28.9205C154.43 28.6185 154.336 28.3577 154.174 28.138C154.228 28.0007 154.268 27.8771 154.295 27.7673C154.322 27.6575 154.417 27.6163 154.579 27.6437C154.498 27.1495 154.498 26.6827 154.579 26.2434C154.687 25.8041 154.835 25.3922 155.024 25.0078C155.213 24.5959 155.443 24.1978 155.713 23.8133C155.983 23.4289 156.239 23.0445 156.482 22.6601C156.671 22.6326 156.779 22.6601 156.806 22.7425C156.86 22.8249 156.955 22.8111 157.09 22.7013C157.441 22.4267 157.684 22.1384 157.819 21.8364C157.954 21.5343 158.021 21.1911 158.021 20.8067C158.21 20.2301 158.341 18.7982 158.611 18.2216C158.881 17.6175 158.876 17.0274 159.144 16.6184C159.468 16.1241 159.819 15.6848 160.197 15.3004C160.602 14.916 161.021 14.6277 161.453 14.4355C161.777 14.1609 162.182 13.9138 162.668 13.6941C163.154 13.447 163.68 13.2685 164.247 13.1587C164.814 13.0214 165.381 12.9527 165.948 12.9527C166.542 12.9253 167.082 12.9802 167.568 13.1175C167.703 13.1724 167.771 13.1449 167.771 13.0351C167.798 12.9253 167.852 12.8704 167.933 12.8704ZM166.262 23.4669C166.937 23.1648 167.652 22.9315 168.408 22.7667C169.191 22.5745 169.839 22.2313 170.352 21.737C170.028 21.435 169.566 19.2709 168.945 19.0513C168.324 18.8041 167.649 18.6531 166.92 18.5982C166.191 18.5433 165.948 18.0521 164.693 18.8041C163.964 18.9689 163.329 19.2984 162.789 19.7926C162.172 20.9874 162.482 22.5882 162.374 22.8903C162.266 23.1648 162.118 23.5081 161.929 23.9199C161.983 24.0572 162.064 24.1671 162.172 24.2494C162.307 24.3044 162.401 24.4005 162.455 24.5378C163.076 24.2083 163.697 24.0298 164.318 24.0023C164.966 23.9474 165.614 23.7689 166.262 23.4669Z" fill="#9264F8"/>
<path d="M209.858 30.7009C209.541 30.7203 209.146 30.7106 208.672 30.6717C208.217 30.6328 207.792 30.7009 207.397 30.8759C206.349 30.837 205.282 30.7106 204.195 30.4967C203.107 30.2827 202.109 30.0202 201.2 29.709C201.002 29.4951 200.805 29.3006 200.607 29.1255C200.409 28.9311 200.142 28.7949 199.806 28.7171C199.332 28.3476 198.946 27.9003 198.65 27.3752C198.353 26.8306 198.116 26.2569 197.938 25.654C197.76 25.051 197.642 24.4384 197.583 23.8161C197.523 23.1743 197.504 22.5616 197.523 21.9782C197.82 21.103 198.235 20.3542 198.769 19.7318C199.322 19.09 199.885 18.458 200.459 17.8356C200.716 17.7189 200.903 17.6022 201.022 17.4855C201.16 17.3494 201.299 17.2327 201.437 17.1354C201.595 17.0188 201.743 16.9118 201.882 16.8145C202.04 16.6979 202.178 16.5617 202.297 16.4061C202.712 16.3089 203.068 16.1727 203.364 15.9977C203.681 15.8032 203.987 15.6087 204.283 15.4142C204.58 15.2003 204.886 15.0058 205.203 14.8308C205.519 14.6557 205.885 14.5196 206.3 14.4224C206.458 14.2473 206.646 14.1112 206.863 14.0139C207.08 13.8972 207.298 13.7903 207.515 13.693C207.752 13.5763 207.97 13.4596 208.168 13.343C208.385 13.2263 208.553 13.0707 208.672 12.8762C208.77 13.0318 208.909 13.0901 209.087 13.0512C209.265 12.9929 209.433 12.9345 209.591 12.8762C209.69 12.8567 209.769 12.8762 209.828 12.9345C209.907 12.9929 209.976 13.0512 210.036 13.1096C210.095 13.1679 210.144 13.2068 210.184 13.2263C210.243 13.2263 210.292 13.1776 210.332 13.0804C210.431 13.0804 210.461 13.129 210.421 13.2263C210.381 13.3235 210.352 13.3916 210.332 13.4305C210.49 13.411 210.619 13.4499 210.717 13.5472C210.836 13.625 211.014 13.6736 211.251 13.693C211.33 13.7903 211.35 13.8681 211.31 13.9264C211.271 13.9653 211.251 14.0431 211.251 14.1598C211.844 14.3348 212.22 14.6168 212.378 15.0058C212.536 15.3753 212.546 15.7643 212.408 16.1727C212.269 16.5812 212.022 16.9604 211.666 17.3105C211.31 17.6606 210.925 17.8939 210.51 18.0106C209.561 18.2635 208.662 18.5455 207.812 18.8567C206.982 19.1484 206.3 19.586 205.766 20.1694C205.292 20.3056 204.867 20.4903 204.491 20.7237C204.135 20.9377 203.789 21.1905 203.453 21.4822C203.137 21.7545 202.831 22.0462 202.534 22.3574C202.257 22.6491 201.961 22.9409 201.645 23.2326C201.664 23.5049 201.615 23.7188 201.496 23.8744C201.398 24.0105 201.299 24.1564 201.2 24.312C201.239 24.6037 201.309 24.8663 201.407 25.0997C201.506 25.3136 201.615 25.5275 201.734 25.7415C203.038 26.1305 204.422 26.3736 205.885 26.4708C207.367 26.568 208.85 26.6264 210.332 26.6458C210.47 26.8403 210.629 27.0251 210.806 27.2001C211.004 27.3557 211.182 27.5308 211.34 27.7252C211.498 27.9003 211.627 28.1045 211.726 28.3379C211.824 28.5518 211.844 28.8241 211.785 29.1547C211.508 29.4464 211.202 29.7187 210.866 29.9716C210.53 30.2049 210.194 30.4481 209.858 30.7009Z" fill="#9264F8"/>
<path fill-rule="evenodd" clip-rule="evenodd" d="M225.849 12.6345C225.066 12.443 224.188 12.3446 223.217 12.3391C223.149 12.347 223.109 12.3987 223.096 12.4941C223.106 12.5869 223.052 12.6166 222.933 12.5834C222.509 12.5148 222.048 12.521 221.549 12.6021C221.07 12.6574 220.597 12.7707 220.131 12.9419C219.663 13.09 219.235 13.292 218.848 13.5482C218.458 13.7811 218.139 14.0293 217.891 14.2929C217.544 14.4974 217.218 14.7817 216.912 15.1459C216.629 15.5075 216.374 15.9128 216.147 16.3619C215.92 16.8111 215.72 17.3039 215.549 17.8405C215.376 18.354 215.236 18.8634 215.131 19.369C215.167 19.6937 215.142 19.9902 215.057 20.2585C214.971 20.5268 214.793 20.7941 214.522 21.0602C214.481 21.1027 214.519 21.4021 214.566 21.7709C214.631 22.2844 214.713 22.9326 214.621 23.21C214.556 23.393 214.641 23.6211 214.728 23.8521C214.804 24.0542 214.881 24.2585 214.858 24.4367C214.844 24.6404 215.019 24.8082 215.203 24.9835C215.361 25.1343 215.525 25.2907 215.578 25.4802C215.438 25.4728 215.362 25.5168 215.35 25.6122C215.337 25.7076 215.315 25.8159 215.282 25.9372C215.333 25.9924 215.379 26.052 215.419 26.116C215.502 26.4928 215.63 26.8475 215.8 27.1813C215.733 27.1894 215.691 27.2178 215.673 27.2665C215.744 27.2892 215.814 27.3116 215.882 27.3338C216.573 28.5634 217.866 29.5019 219.661 30.2199C222.007 31.1586 225.426 30.4596 227.486 29.116C227.978 28.7955 228.493 28.2804 228.781 27.9237C228.884 27.7961 229.092 27.5941 229.297 27.3938C229.517 27.1797 229.734 26.9676 229.82 26.8505C229.89 26.7554 229.832 26.7535 229.773 26.7516C229.769 26.7515 229.766 26.7514 229.762 26.7512L229.714 26.6692C230.259 25.8319 230.416 25.2606 230.25 24.7557L230.135 24.2998C230.048 23.9567 229.66 23.7889 229.352 23.9629C229.112 24.0981 228.877 24.2325 228.645 24.3651C226.564 25.5536 224.736 26.5975 222.274 26.7577L221.955 26.7562L221.342 26.6693L220.568 26.127L219.714 25.8117L219.85 25.5584C220.127 25.4511 220.434 25.3428 220.773 25.2336C221.263 25.0778 221.814 24.9597 222.366 24.8413C223.121 24.6796 223.878 24.5172 224.489 24.2567C225.548 23.8057 226.516 23.271 227.394 22.6528C227.715 22.4228 228.081 22.2391 228.445 22.0565C229.101 21.7277 229.749 21.4023 230.114 20.8165C230.191 20.5447 230.274 20.3332 230.348 20.1445C230.499 19.76 230.613 19.4699 230.556 18.9565C230.504 18.3224 230.416 18.0975 230.239 17.6456C230.202 17.5502 230.16 17.4445 230.114 17.3228C229.872 16.599 229.542 15.9204 229.125 15.2872C228.731 14.6514 228.319 14.0646 227.889 13.5268C227.313 13.1235 226.633 12.826 225.849 12.6345ZM224.489 20.0159C223.866 20.2287 223.284 20.4956 222.742 20.8166C222.223 21.1349 221.693 21.3488 221.151 21.4584C220.629 21.5421 220.121 21.7534 219.627 22.0923C219.569 21.9816 219.48 21.9096 219.361 21.8764C219.262 21.8173 219.183 21.7324 219.124 21.6217C219.245 21.2553 219.338 20.9509 219.404 20.7084C219.433 20.5851 219.465 20.2058 219.5 19.7915C219.54 19.3137 219.585 18.7893 219.633 18.5572C220.043 18.087 220.548 17.7468 221.148 17.5366C221.163 17.5307 221.179 17.5249 221.194 17.519C221.803 17.2871 222.49 17.0256 223.096 17.0015C223.256 16.9952 223.425 16.9822 223.597 16.969C224.089 16.9312 224.603 16.8916 225.009 17.0015C225.335 17.0762 225.529 17.6789 225.698 18.2001C225.811 18.5518 225.913 18.8664 226.035 18.9565C225.648 19.4241 225.133 19.7772 224.489 20.0159Z" fill="#9264F8"/>
<path d="M138.406 19.7381C138.46 19.2977 138.603 18.9005 138.835 18.5464C139.086 18.1884 139.366 17.8756 139.675 17.608C139.999 17.3168 140.341 17.0629 140.701 16.8464C141.06 16.6299 141.404 16.4369 141.733 16.2676C142.44 15.7756 143.199 15.2934 144.011 14.8209C144.838 14.3249 145.682 13.8662 146.544 13.4448C147.425 13.0195 148.343 12.6787 149.298 12.4224C150.249 12.1465 151.287 12.0573 152.412 12.1548C152.509 12.3395 152.633 12.5085 152.784 12.6617C152.934 12.815 153.085 12.9682 153.236 13.1215C153.406 13.2708 153.557 13.424 153.689 13.5812C153.817 13.7187 153.908 13.874 153.962 14.047C154.19 14.1844 154.383 14.3494 154.542 14.542C154.697 14.7149 154.769 14.9763 154.757 15.3263C154.595 15.523 154.431 15.7099 154.265 15.887C154.114 16.0404 153.942 16.188 153.749 16.3297C152.999 16.2988 152.262 16.3878 151.539 16.5967C150.817 16.8056 150.169 16.989 149.597 17.1466C149.388 17.0052 149.158 16.9602 148.907 17.0115C148.675 17.0588 148.431 17.1495 148.176 17.2833C147.941 17.4133 147.695 17.5452 147.44 17.679C147.204 17.809 146.967 17.878 146.727 17.886C146.565 18.0827 146.344 18.2402 146.066 18.3583C145.803 18.4529 145.511 18.5534 145.191 18.6598C145.191 18.762 145.224 18.8269 145.289 18.8543C145.351 18.8622 145.373 18.9192 145.353 19.0253C145.496 19.1393 145.661 19.208 145.846 19.2314C146.051 19.2509 146.256 19.2704 146.461 19.29C146.685 19.3055 147.753 19.2499 147.927 19.3166C148.097 19.3637 148.23 19.4796 148.327 19.6643C148.617 19.6051 148.882 19.6226 149.122 19.7168C149.362 19.811 149.568 19.9426 149.743 20.1116C149.917 20.2805 150.056 20.477 150.161 20.7011C150.281 20.9015 150.358 21.0902 150.393 21.2671C150.482 21.4126 150.563 21.4675 150.637 21.4321C150.71 21.3967 150.805 21.4182 150.921 21.4968C151.029 21.7405 151.227 21.9763 151.513 22.2041C151.795 22.4123 152.035 22.6599 152.232 22.9468C152.368 23.4303 152.484 23.8667 152.581 24.2559C152.674 24.6255 152.682 25.0226 152.605 25.4473C152.459 26.2339 152.181 26.9654 151.772 27.642C151.382 28.3147 150.903 28.9442 150.335 29.5305C149.783 30.0932 148.455 31.1554 147.782 31.6199C147.11 32.0843 144.557 32.8984 143.904 33.2567C143.823 33.2528 143.745 33.2686 143.672 33.304C143.598 33.3395 143.569 33.2943 143.585 33.1684C143.457 33.3376 143.301 33.4616 143.115 33.5403C142.949 33.6152 142.758 33.6645 142.541 33.6882C142.329 33.7316 142.104 33.7672 141.869 33.7949C141.652 33.8186 141.451 33.8699 141.266 33.9487C141.103 33.8387 140.95 33.7267 140.807 33.6128C140.687 33.5146 140.579 33.3731 140.482 33.1884C140.386 33.2081 140.328 33.1688 140.308 33.0705C140.308 32.9683 140.269 32.9251 140.192 32.9409C140.269 32.7206 140.296 32.6026 140.273 32.5869C140.265 32.5476 140.23 32.524 140.169 32.5162C140.126 32.5044 140.083 32.4927 140.041 32.4809C139.995 32.4495 139.975 32.4023 139.983 32.3394C140.029 32.1663 140.023 31.9835 139.965 31.7909C139.903 31.5786 139.841 31.3663 139.779 31.154C139.717 30.9417 139.686 30.7333 139.686 30.5289C139.705 30.3205 139.819 30.1336 140.028 29.9683C140.7 29.9128 141.315 29.7668 141.871 29.5305C142.443 29.2706 143.822 28.6924 145.18 27.7724C145.655 27.43 146.097 27.0738 146.507 26.7039C146.936 26.3301 147.361 25.9877 147.782 25.6767C147.805 25.488 147.853 25.3247 147.927 25.1871C148.019 25.0454 148.114 24.9136 148.211 24.7917C148.307 24.6697 148.392 24.5399 148.466 24.4022C148.539 24.2645 148.577 24.1033 148.581 23.9185C148.573 23.7769 148.519 23.7062 148.419 23.7063C148.334 23.6827 148.279 23.612 148.256 23.494L147.92 23.4707C147.51 23.3294 147.059 23.2374 146.568 23.1945C146.073 23.1319 145.644 23.0457 145.281 22.9359C145.091 23.0972 144.894 23.1681 144.689 23.1486C144.504 23.1252 144.26 23.1136 143.959 23.1138C143.294 23.2086 142.642 23.27 142.004 23.298C141.386 23.3221 140.771 23.2635 140.16 23.1224C140.102 23.032 140.036 22.9534 139.963 22.8866C139.889 22.8198 139.779 22.8219 139.632 22.8928C139.485 22.7592 139.34 22.6354 139.197 22.5215C139.05 22.3879 138.911 22.2425 138.779 22.0853C138.771 21.8416 138.761 21.6391 138.75 21.4779C138.734 21.297 138.643 21.1417 138.477 21.0121C138.504 20.7408 138.521 20.5225 138.528 20.3574C138.536 20.1922 138.495 19.9858 138.406 19.7381Z" fill="#9264F8"/>
<path d="M126.611 30.3697C124.946 30.3697 123.468 30.0133 122.175 29.3005C120.883 28.5653 119.853 27.5629 119.087 26.2932C118.342 25.0235 117.97 23.5755 117.97 21.9494C117.97 20.3455 118.331 18.9198 119.054 17.6724C119.799 16.4027 120.806 15.4002 122.077 14.6651C123.347 13.9077 124.76 13.5291 126.315 13.5291C127.848 13.5291 129.195 13.8855 130.356 14.5983C131.539 15.2889 132.459 16.2467 133.116 17.4719C133.795 18.6748 134.135 20.0448 134.135 21.5818C134.135 21.8714 134.113 22.1721 134.069 22.484C134.047 22.7736 133.992 23.1077 133.905 23.4864L120.565 23.5198V20.2453L131.901 20.2118L130.159 21.5818C130.115 20.624 129.94 19.822 129.634 19.176C129.349 18.53 128.922 18.0399 128.352 17.7058C127.805 17.3494 127.125 17.1712 126.315 17.1712C125.461 17.1712 124.716 17.3717 124.081 17.7726C123.446 18.1513 122.953 18.6971 122.602 19.4099C122.274 20.1005 122.109 20.9247 122.109 21.8825C122.109 22.8627 122.285 23.7203 122.635 24.4554C123.008 25.1683 123.533 25.7252 124.212 26.1261C124.891 26.5048 125.68 26.6942 126.578 26.6942C127.388 26.6942 128.122 26.5605 128.779 26.2932C129.436 26.0036 130.006 25.5804 130.488 25.0235L133.018 27.5963C132.251 28.5097 131.309 29.2002 130.192 29.668C129.097 30.1358 127.903 30.3697 126.611 30.3697Z" fill="white"/>
<path d="M111.249 30.0354V20.7797C111.249 19.8218 110.953 19.0421 110.362 18.4407C109.77 17.8392 109.004 17.5385 108.062 17.5385C107.449 17.5385 106.901 17.6722 106.419 17.9395C105.937 18.2068 105.554 18.5855 105.269 19.0756C105.006 19.5656 104.875 20.1337 104.875 20.7797L103.199 19.9109C103.199 18.6412 103.462 17.5385 103.988 16.6029C104.535 15.6451 105.28 14.8988 106.222 14.3642C107.186 13.8296 108.27 13.5623 109.475 13.5623C110.636 13.5623 111.676 13.863 112.596 14.4644C113.516 15.0436 114.239 15.8121 114.764 16.77C115.29 17.7056 115.553 18.7191 115.553 19.8107V30.0354H111.249ZM100.571 30.0354V13.8964H104.875V30.0354H100.571Z" fill="white"/>
<path d="M79.5588 30.0354L73.6118 13.8965H77.9488L81.8258 25.6248L80.5116 25.6582L84.4872 13.8965H87.6085L91.5841 25.6582L90.2698 25.6248L94.1469 13.8965H98.4839L92.5698 30.0354H89.4484L85.44 18.8752H86.6557L82.6472 30.0354H79.5588Z" fill="white"/>
<path d="M64.4257 30.3697C62.8267 30.3697 61.3811 30.0021 60.0887 29.267C58.8183 28.5097 57.7998 27.4961 57.0331 26.2264C56.2884 24.9344 55.916 23.4976 55.916 21.916C55.916 20.3344 56.2884 18.9198 57.0331 17.6724C57.7779 16.4027 58.7964 15.4002 60.0887 14.6651C61.3811 13.9077 62.8158 13.5291 64.3929 13.5291C66.0138 13.5291 67.4594 13.9077 68.7299 14.6651C70.0222 15.4002 71.0408 16.4027 71.7855 17.6724C72.5302 18.9198 72.9026 20.3344 72.9026 21.916C72.9026 23.4976 72.5302 24.9344 71.7855 26.2264C71.0408 27.4961 70.0222 28.5097 68.7299 29.267C67.4594 30.0021 66.0247 30.3697 64.4257 30.3697ZM64.3929 26.2932C65.2033 26.2932 65.9152 26.115 66.5285 25.7586C67.1637 25.3799 67.6456 24.8675 67.9742 24.2215C68.3247 23.5532 68.4999 22.7959 68.4999 21.9494C68.4999 21.1029 68.3247 20.3566 67.9742 19.7106C67.6237 19.0646 67.1418 18.5634 66.5285 18.207C65.9152 17.8283 65.2033 17.639 64.3929 17.639C63.6043 17.639 62.9034 17.8283 62.2901 18.207C61.6768 18.5634 61.1949 19.0646 60.8444 19.7106C60.494 20.3566 60.3187 21.1029 60.3187 21.9494C60.3187 22.7959 60.494 23.5532 60.8444 24.2215C61.1949 24.8675 61.6768 25.3799 62.2901 25.7586C62.9034 26.115 63.6043 26.2932 64.3929 26.2932Z" fill="white"/>
<path d="M46.914 30.0356V7.18042H51.2182V30.0356H46.914ZM43.2013 17.7392V13.8966H54.9309V17.7392H43.2013Z" fill="white"/>
<path d="M13.7555 2.77186C15.4087 2.0296 16.2354 1.65847 17.2549 1.67096C18.2743 1.68345 19.1163 2.08637 20.8001 2.8922C24.1004 4.47164 26.5356 5.89273 29.1856 7.78077C30.644 8.81982 31.3732 9.33935 31.8903 10.2336C32.4075 11.1278 32.4981 12.0134 32.6793 13.7846C33.0393 17.3044 32.985 20.1844 32.6264 23.7466C32.4422 25.5768 32.3501 26.4919 31.8502 27.3747C31.3502 28.2575 30.6465 28.7768 29.2391 29.8155C26.4386 31.8822 23.9541 33.2845 20.7495 34.7456C19.0973 35.4989 18.2713 35.8755 17.2758 35.8791C16.2804 35.8826 15.4666 35.5185 13.8389 34.7903C10.5804 33.3323 8.10002 31.8776 5.19473 29.6922C3.84296 28.6754 3.16707 28.167 2.67889 27.3081C2.1907 26.4493 2.09749 25.6239 1.91107 23.9732C1.50214 20.3522 1.59091 17.454 1.97133 13.8281C2.16643 11.9685 2.26398 11.0387 2.7581 10.1656C3.25223 9.29251 3.96844 8.75857 5.40085 7.69071C8.18767 5.61315 10.6135 4.18252 13.7555 2.77186Z" fill="#9264F8"/>
<path fill-rule="evenodd" clip-rule="evenodd" d="M4.42982 6.3433C7.31108 4.19533 9.83989 2.70369 13.0922 1.2435C13.1644 1.21112 13.2357 1.17902 13.3063 1.14726C14.7543 0.495636 15.8925 -0.0165309 17.2749 0.000408345C18.6576 0.0173515 19.8086 0.569441 21.2771 1.27379C21.3505 1.30901 21.4247 1.34461 21.4998 1.38054C24.8751 2.99586 27.393 4.46362 30.1284 6.41247C30.1913 6.45726 30.2535 6.50152 30.3151 6.54533C31.5967 7.45683 32.6054 8.17422 33.3066 9.38661C34.0077 10.5989 34.1324 11.8282 34.2907 13.3882C34.2982 13.462 34.3058 13.5365 34.3135 13.6118C34.6872 17.2654 34.6288 20.2622 34.2609 23.9168C34.2528 23.9978 34.2448 24.0778 34.2369 24.1571C34.0772 25.7567 33.952 27.0114 33.274 28.2086C32.5962 29.4054 31.6216 30.1233 30.3836 31.0355C30.3244 31.0791 30.2646 31.1231 30.2042 31.1677C27.2977 33.3126 24.7118 34.7701 21.4218 36.2702C21.3483 36.3037 21.2757 36.3368 21.2038 36.3697C19.7619 37.0286 18.6318 37.545 17.2818 37.5498C15.9319 37.5546 14.8138 37.0532 13.3895 36.4145C13.3196 36.3831 13.249 36.3515 13.1776 36.3195C9.80887 34.8122 7.22252 33.2954 4.21804 31.0354C4.16038 30.992 4.10329 30.9492 4.04677 30.9067C2.85602 30.0125 1.91866 29.3086 1.25686 28.1443C0.595203 26.9803 0.465976 25.8283 0.302164 24.3679C0.294607 24.3006 0.286977 24.2326 0.279218 24.1639C-0.147164 20.3883 -0.0513155 17.3618 0.338018 13.6509C0.346821 13.5669 0.355455 13.484 0.363995 13.4019C0.532493 11.7828 0.664274 10.5165 1.33452 9.33219C2.00459 8.14824 2.98868 7.41588 4.24268 6.48265C4.30441 6.43671 4.36679 6.39029 4.42982 6.3433ZM17.2551 1.67099C16.2356 1.65849 15.409 2.02962 13.7557 2.77189C10.6137 4.18254 8.18789 5.61317 5.40107 7.69074C3.96866 8.7586 3.25245 9.29253 2.75833 10.1656C2.2642 11.0387 2.16665 11.9685 1.97155 13.8281C1.59113 17.4541 1.50237 20.3522 1.91129 23.9732C2.09771 25.624 2.19092 26.4493 2.67911 27.3082C3.1673 28.167 3.84318 28.6754 5.19495 29.6922C8.10024 31.8776 10.5807 33.3323 13.8392 34.7903C15.4668 35.5185 16.2806 35.8827 17.276 35.8791C18.2715 35.8756 19.0976 35.4989 20.7497 34.7457C23.9543 33.2845 26.4388 31.8822 29.2393 29.8155C30.6467 28.7768 31.3504 28.2575 31.8504 27.3747C32.3503 26.492 32.4424 25.5769 32.6267 23.7466C32.9852 20.1844 33.0395 17.3044 32.6795 13.7846C32.4983 12.0134 32.4077 11.1278 31.8906 10.2336C31.3734 9.33937 30.6442 8.81985 29.1858 7.78079C26.5358 5.89276 24.1006 4.47166 20.8003 2.89222C19.1165 2.08639 18.2746 1.68348 17.2551 1.67099Z" fill="white"/>
<path d="M16.7667 29.05C16.8128 29.1738 16.7228 29.3062 16.5927 29.3062L11.5446 29.3062C10.7074 29.3062 9.97319 28.7374 9.75084 27.9164L8.45517 23.1327C8.38524 22.8745 8.57624 22.6195 8.83956 22.6195L10.7309 22.6195C10.9095 22.6195 11.0664 22.7404 11.1147 22.9153L12.2233 26.9262C12.3361 27.3343 12.7021 27.6163 13.1189 27.6163L15.9578 27.6163C16.1236 27.6163 16.2721 27.7206 16.3307 27.8782L16.7667 29.05Z" fill="white"/>
<path d="M11.5145 10.1355H16.3511C16.5267 10.1355 16.6816 10.2523 16.7326 10.4231L17.8273 14.0866C18.2867 15.6239 19.6807 16.6748 21.2606 16.6748H23.1397C23.6317 16.6748 24.0623 17.0112 24.189 17.4947L25.7439 23.4258C26.0013 24.4074 25.2738 25.3703 24.2749 25.3703H14.0401C13.8617 25.3703 13.705 25.2497 13.6564 25.0751L10.0514 12.1022C9.77717 11.1154 10.5062 10.1355 11.5145 10.1355Z" fill="white"/>
<path d="M18.0466 8.75441C17.9699 8.49425 18.1614 8.23242 18.4285 8.23242H22.6516C23.4422 8.23242 24.1466 8.7406 24.4077 9.49954L26.0656 14.3168C26.1564 14.5805 25.964 14.8563 25.6893 14.8563H21.9231C20.6906 14.8563 19.6041 14.0341 19.2499 12.8335L18.0466 8.75441Z" fill="white"/>
</svg>