<svg width="234" height="234" viewBox="0 0 234 234" fill="none" xmlns="http://www.w3.org/2000/svg">
<path d="M229.062 233.392C231.018 232.582 232.582 231.017 233.393 229.062L232.931 228.87C233.298 227.987 233.5 227.017 233.5 226V221.045H234V211.136H233.5V201.227H234V191.318H233.5V181.409H234V171.499H233.5V161.59H234V151.681H233.5V141.772H234V131.863H233.5V121.954H234V112.045H233.5V102.136H234V92.2268H233.5V82.3177H234V72.4086H233.5V62.4995H234V52.5904H233.5V42.6813H234V32.7722H233.5V22.8631H234V12.9541H233.5V7.99951C233.5 6.98165 233.298 6.01235 232.931 5.12874L233.393 4.93721C232.582 2.98169 231.018 1.41748 229.062 0.606556L228.871 1.06842C227.987 0.701999 227.018 0.499512 226 0.499512H221.045V-0.000488281H211.136V0.499512H201.227V-0.000488281H191.318V0.499512H181.409V-0.000488281H171.5V0.499512H161.591V-0.000488281H151.682V0.499512H141.773V-0.000488281H131.864V0.499512H121.955V-0.000488281H112.045V0.499512H102.136V-0.000488281H92.2273V0.499512H82.3182V-0.000488281H72.4091V0.499512H62.5V-0.000488281H52.5909V0.499512H42.6818V-0.000488281H32.7727V0.499512H22.8636V-0.000488281H12.9545V0.499512H8C6.98215 0.499512 6.01283 0.701998 5.12923 1.06842L4.9377 0.606554C2.98218 1.41748 1.41797 2.98168 0.60704 4.93721L1.06891 5.12873C0.702484 6.01235 0.5 6.98165 0.5 7.99951V12.9541H0V22.8632H0.5V32.7723H0V42.6814H0.5V52.5904H0V62.4995H0.5V72.4086H0V82.3177H0.5V92.2268H0V102.136H0.5V112.045H0V121.954H0.5V131.863H0V141.772H0.5V151.681H0V161.59H0.5V171.5H0V181.409H0.5V191.318H0V201.227H0.5V211.136H0V221.045H0.5V226C0.5 227.017 0.702484 227.987 1.06891 228.87L0.60704 229.062C1.41797 231.017 2.98218 232.582 4.9377 233.392L5.12923 232.931C6.01283 233.297 6.98215 233.5 8 233.5H12.9546V234H22.8637V233.5H32.7728V234H42.6818V233.5H52.5909V234H62.5V233.5H72.4091V234H82.3182V233.5H92.2273V234H102.136V233.5H112.045V234H121.955V233.5H131.864V234H141.773V233.5H151.682V234H161.591V233.5H171.5V234H181.409V233.5H191.318V234H201.227V233.5H211.136V234H221.045V233.5H226C227.018 233.5 227.987 233.297 228.871 232.931L229.062 233.392Z" stroke="#CCCCCC" stroke-dasharray="10 10"/>
</svg>
