<svg width="25" height="25" viewBox="0 0 25 25" fill="none" xmlns="http://www.w3.org/2000/svg">
<g clip-path="url(#clip0_511_54973)">
<path d="M4.25 6.3252V18.3252C4.25 18.723 4.40804 19.1046 4.68934 19.3859C4.97064 19.6672 5.35218 19.8252 5.75 19.8252H20.75C20.9489 19.8252 21.1397 19.7462 21.2803 19.6055C21.421 19.4649 21.5 19.2741 21.5 19.0752V8.5752C21.5 8.37628 21.421 8.18552 21.2803 8.04487C21.1397 7.90421 20.9489 7.8252 20.75 7.8252H5.75C5.35218 7.8252 4.97064 7.66716 4.68934 7.38586C4.40804 7.10455 4.25 6.72302 4.25 6.3252ZM4.25 6.3252C4.25 5.92737 4.40804 5.54584 4.68934 5.26454C4.97064 4.98323 5.35218 4.8252 5.75 4.8252H18.5" stroke="#222222" stroke-width="2" stroke-linecap="round" stroke-linejoin="round"/>
<path d="M17.375 14.5752C17.9963 14.5752 18.5 14.0715 18.5 13.4502C18.5 12.8289 17.9963 12.3252 17.375 12.3252C16.7537 12.3252 16.25 12.8289 16.25 13.4502C16.25 14.0715 16.7537 14.5752 17.375 14.5752Z" fill="#222222"/>
</g>
<defs>
<clipPath id="clip0_511_54973">
<rect width="24" height="24" fill="white" transform="translate(0.5 0.325195)"/>
</clipPath>
</defs>
</svg>
