<svg width="20" height="20" viewBox="0 0 20 20" fill="none" xmlns="http://www.w3.org/2000/svg">
<path fill-rule="evenodd" clip-rule="evenodd" d="M0 10C0 4.47715 4.47715 0 10 0C15.5228 0 20 4.47715 20 10C20 15.5228 15.5228 20 10 20C4.47715 20 0 15.5228 0 10ZM8.25 9.1998C8.25 8.53706 8.76167 7.9998 9.39286 7.9998C9.92329 7.9998 10.432 8.22106 10.8071 8.61488C11.1821 9.00871 11.3929 9.54285 11.3929 10.0998V14.3376C11.8858 14.4708 12.25 14.9407 12.25 15.4998C12.25 16.1625 11.7383 16.6998 11.1071 16.6998C10.5767 16.6998 10.068 16.4786 9.69293 16.0847C9.31785 15.6909 9.10714 15.1568 9.10714 14.5998V10.362C8.61422 10.2288 8.25 9.75896 8.25 9.1998ZM11.3 5.1C11.3 5.8732 10.6732 6.5 9.9 6.5C9.1268 6.5 8.5 5.8732 8.5 5.1C8.5 4.3268 9.1268 3.7 9.9 3.7C10.6732 3.7 11.3 4.3268 11.3 5.1Z" fill="white"/>
</svg>
