<svg width="96" height="97" viewBox="0 0 96 97" fill="none" xmlns="http://www.w3.org/2000/svg">
<g id="CheckCircle" clip-path="url(#clip0_1538_233316)">
<path id="Vector" d="M48 9.02734C40.2865 9.02734 32.7463 11.3147 26.3328 15.6C19.9193 19.8854 14.9205 25.9764 11.9687 33.1027C9.0169 40.229 8.24457 48.0706 9.74939 55.6359C11.2542 63.2011 14.9686 70.1503 20.4229 75.6045C25.8771 81.0588 32.8262 84.7731 40.3915 86.278C47.9568 87.7828 55.7983 87.0105 62.9247 84.0586C70.051 81.1068 76.142 76.1081 80.4273 69.6946C84.7127 63.2811 87 55.7408 87 48.0273C86.9891 37.6873 82.8767 27.7738 75.5651 20.4622C68.2536 13.1507 58.3401 9.03826 48 9.02734Z" fill="#2AB576"/>
<path id="Vector_2" d="M44.1242 62.1515L65.1242 41.1515C65.4029 40.8728 65.624 40.5419 65.7748 40.1777C65.9257 39.8135 66.0033 39.4232 66.0033 39.029C66.0033 38.6348 65.9257 38.2445 65.7748 37.8803C65.624 37.5161 65.4029 37.1852 65.1242 36.9065C64.8454 36.6278 64.5145 36.4067 64.1504 36.2558C63.7862 36.105 63.3959 36.0273 63.0017 36.0273C62.6075 36.0273 62.2172 36.105 61.853 36.2558C61.4888 36.4067 61.1579 36.6278 60.8792 36.9065L42.0017 55.7878L35.1242 48.9065C34.5612 48.3436 33.7978 48.0273 33.0017 48.0273C32.2056 48.0273 31.4421 48.3436 30.8792 48.9065C30.3162 49.4694 30 50.2329 30 51.029C30 51.8251 30.3162 52.5886 30.8792 53.1515L39.8792 62.1515C40.1578 62.4304 40.4887 62.6517 40.8528 62.8027C41.217 62.9537 41.6074 63.0314 42.0017 63.0314C42.3959 63.0314 42.7863 62.9537 43.1505 62.8027C43.5147 62.6517 43.8455 62.4304 44.1242 62.1515Z" fill="white"/>
</g>
<defs>
<clipPath id="clip0_1538_233316">
<rect width="96" height="96" fill="white" transform="translate(0 0.0268555)"/>
</clipPath>
</defs>
</svg>
