<svg width="34" height="34" viewBox="0 0 34 34" fill="none" xmlns="http://www.w3.org/2000/svg">
<path id="Vector" d="M17 0.75C13.7861 0.75 10.6443 1.70305 7.97199 3.48862C5.29969 5.27419 3.21689 7.81209 1.98696 10.7814C0.757041 13.7507 0.435237 17.018 1.06225 20.1702C1.68926 23.3224 3.23692 26.2179 5.50952 28.4905C7.78213 30.7631 10.6776 32.3107 13.8298 32.9378C16.982 33.5648 20.2493 33.243 23.2186 32.013C26.1879 30.7831 28.7258 28.7003 30.5114 26.028C32.297 23.3557 33.25 20.2139 33.25 17C33.2455 12.6916 31.5319 8.56102 28.4855 5.51454C25.439 2.46806 21.3084 0.75455 17 0.75ZM24.1344 14.1344L15.3844 22.8844C15.2683 23.0006 15.1304 23.0928 14.9787 23.1557C14.8269 23.2186 14.6643 23.251 14.5 23.251C14.3357 23.251 14.1731 23.2186 14.0213 23.1557C13.8696 23.0928 13.7317 23.0006 13.6156 22.8844L9.86563 19.1344C9.63108 18.8998 9.49931 18.5817 9.49931 18.25C9.49931 17.9183 9.63108 17.6002 9.86563 17.3656C10.1002 17.1311 10.4183 16.9993 10.75 16.9993C11.0817 16.9993 11.3998 17.1311 11.6344 17.3656L14.5 20.2328L22.3656 12.3656C22.4818 12.2495 22.6196 12.1574 22.7714 12.0945C22.9231 12.0317 23.0858 11.9993 23.25 11.9993C23.4143 11.9993 23.5769 12.0317 23.7286 12.0945C23.8804 12.1574 24.0182 12.2495 24.1344 12.3656C24.2505 12.4818 24.3426 12.6196 24.4055 12.7714C24.4684 12.9231 24.5007 13.0858 24.5007 13.25C24.5007 13.4142 24.4684 13.5769 24.4055 13.7286C24.3426 13.8804 24.2505 14.0182 24.1344 14.1344Z" fill="white"/>
</svg>
