<svg width="24" height="24" viewBox="0 0 24 24" fill="none" xmlns="http://www.w3.org/2000/svg">
<g id="General icons" clip-path="url(#clip0_3144_171)">
<path id="Subtract" fill-rule="evenodd" clip-rule="evenodd" d="M2 12C2 6.47715 6.47715 2 12 2C17.5228 2 22 6.47715 22 12C22 17.5228 17.5228 22 12 22C6.47715 22 2 17.5228 2 12ZM10.25 11.1998C10.25 10.5371 10.7617 9.9998 11.3929 9.9998C11.9233 9.9998 12.432 10.2211 12.8071 10.6149C13.1821 11.0087 13.3929 11.5428 13.3929 12.0998V16.3376C13.8858 16.4708 14.25 16.9407 14.25 17.4998C14.25 18.1625 13.7383 18.6998 13.1071 18.6998C12.5767 18.6998 12.068 18.4786 11.6929 18.0847C11.3179 17.6909 11.1071 17.1568 11.1071 16.5998V12.362C10.6142 12.2288 10.25 11.759 10.25 11.1998ZM13.3 7.1C13.3 7.8732 12.6732 8.5 11.9 8.5C11.1268 8.5 10.5 7.8732 10.5 7.1C10.5 6.3268 11.1268 5.7 11.9 5.7C12.6732 5.7 13.3 6.3268 13.3 7.1Z" fill="white"/>
</g>
<defs>
<clipPath id="clip0_3144_171">
<rect width="24" height="24" fill="white"/>
</clipPath>
</defs>
</svg>
