<svg width="60" height="59" viewBox="0 0 60 59" fill="none" xmlns="http://www.w3.org/2000/svg">
<g clip-path="url(#clip0_315_38602)">
<path d="M50.4864 47.9375H9.57586C9.12514 47.9363 8.69322 47.7567 8.37451 47.438C8.0558 47.1193 7.87622 46.6874 7.875 46.2366V18.4375H50.2812C50.7702 18.4375 51.2392 18.6318 51.585 18.9775C51.9307 19.3233 52.125 19.7923 52.125 20.2812V46.2989C52.125 46.7335 51.9524 47.1503 51.6451 47.4576C51.3378 47.7649 50.921 47.9375 50.4864 47.9375Z" fill="white" fill-opacity="0.1" stroke="white" stroke-width="2" stroke-linecap="round" stroke-linejoin="round"/>
<path d="M7.875 18.4375V12.9062C7.875 12.4173 8.06925 11.9483 8.41502 11.6025C8.76079 11.2568 9.22976 11.0625 9.71875 11.0625H21.8621C22.3505 11.0627 22.8188 11.2567 23.1643 11.6018L30 18.4375" fill="white" fill-opacity="0.1"/>
<path d="M7.875 18.4375V12.9062C7.875 12.4173 8.06925 11.9483 8.41502 11.6025C8.76079 11.2568 9.22976 11.0625 9.71875 11.0625H21.8621C22.3505 11.0627 22.8188 11.2567 23.1643 11.6018L30 18.4375" stroke="white" stroke-width="2" stroke-linecap="round" stroke-linejoin="round"/>
</g>
<defs>
<clipPath id="clip0_315_38602">
<rect width="59" height="59" fill="white" transform="translate(0.5)"/>
</clipPath>
</defs>
</svg>
