<svg width="60" height="60" viewBox="0 0 60 60" fill="none" xmlns="http://www.w3.org/2000/svg">
<g clip-path="url(#clip0_1106_54025)">
<path d="M50.4864 48.4375H9.57586C9.12514 48.4363 8.69322 48.2567 8.37451 47.938C8.0558 47.6193 7.87622 47.1874 7.875 46.7366V18.9375H50.2812C50.7702 18.9375 51.2392 19.1318 51.585 19.4775C51.9307 19.8233 52.125 20.2923 52.125 20.7812V46.7989C52.125 47.2335 51.9524 47.6503 51.6451 47.9576C51.3378 48.2649 50.921 48.4375 50.4864 48.4375Z" fill="white" fill-opacity="0.2" stroke="white" stroke-width="2" stroke-linecap="round" stroke-linejoin="round"/>
<path d="M30 25C28.22 25 26.4799 25.5278 24.9999 26.5168C23.5198 27.5057 22.3663 28.9113 21.6851 30.5558C21.0039 32.2004 20.8257 34.01 21.1729 35.7558C21.5202 37.5016 22.3774 39.1053 23.636 40.364C24.8947 41.6226 26.4984 42.4798 28.2442 42.8271C29.99 43.1743 31.7996 42.9961 33.4442 42.3149C35.0887 41.6337 36.4943 40.4802 37.4832 39.0001C38.4722 37.5201 39 35.78 39 34C38.9975 31.6138 38.0485 29.3261 36.3612 27.6388C34.6739 25.9515 32.3862 25.0025 30 25Z" fill="#2AB576"/>
<path d="M25.5 34.8436L28.2391 37.5998L34.5 31.2998" stroke="white" stroke-width="1.8" stroke-linecap="round" stroke-linejoin="round"/>
<path d="M7.875 18.9375V13.4062C7.875 12.9173 8.06925 12.4483 8.41502 12.1025C8.76079 11.7568 9.22976 11.5625 9.71875 11.5625H21.8621C22.3505 11.5627 22.8188 11.7567 23.1643 12.1018L30 18.9375" fill="white" fill-opacity="0.2"/>
<path d="M7.875 18.9375V13.4062C7.875 12.9173 8.06925 12.4483 8.41502 12.1025C8.76079 11.7568 9.22976 11.5625 9.71875 11.5625H21.8621C22.3505 11.5627 22.8188 11.7567 23.1643 12.1018L30 18.9375" stroke="white" stroke-width="2" stroke-linecap="round" stroke-linejoin="round"/>
</g>
<defs>
<clipPath id="clip0_1106_54025">
<rect width="59" height="59" fill="white" transform="translate(0.5 0.5)"/>
</clipPath>
</defs>
</svg>
