<svg width="24" height="24" viewBox="0 0 24 24" fill="none" xmlns="http://www.w3.org/2000/svg">
<g clip-path="url(#clip0_550_9690)">
<path fill-rule="evenodd" clip-rule="evenodd" d="M2.30005 9C2.30005 8.44772 2.74776 8 3.30005 8H20.55C21.1023 8 21.55 8.44772 21.55 9C21.55 9.55228 21.1023 10 20.55 10H3.30005C2.74776 10 2.30005 9.55228 2.30005 9Z" fill="white"/>
<path fill-rule="evenodd" clip-rule="evenodd" d="M2.30005 14C2.30005 13.4477 2.74776 13 3.30005 13H20.55C21.1023 13 21.55 13.4477 21.55 14C21.55 14.5523 21.1023 15 20.55 15H3.30005C2.74776 15 2.30005 14.5523 2.30005 14Z" fill="white"/>
</g>
<defs>
<clipPath id="clip0_550_9690">
<rect width="24" height="24" fill="white"/>
</clipPath>
</defs>
</svg>
