<svg width="25" height="24" viewBox="0 0 25 24" fill="none" xmlns="http://www.w3.org/2000/svg">
<g clip-path="url(#clip0_1003_45097)">
<path fill-rule="evenodd" clip-rule="evenodd" d="M3.25 12C3.25 11.4477 3.69772 11 4.25 11H20.75C21.3023 11 21.75 11.4477 21.75 12C21.75 12.5523 21.3023 13 20.75 13H4.25C3.69772 13 3.25 12.5523 3.25 12Z" fill="white"/>
<path fill-rule="evenodd" clip-rule="evenodd" d="M11.7071 4.54289C12.0976 4.93342 12.0976 5.56658 11.7071 5.95711L5.66421 12L11.7071 18.0429C12.0976 18.4334 12.0976 19.0666 11.7071 19.4571C11.3166 19.8476 10.6834 19.8476 10.2929 19.4571L3.54289 12.7071C3.15237 12.3166 3.15237 11.6834 3.54289 11.2929L10.2929 4.54289C10.6834 4.15237 11.3166 4.15237 11.7071 4.54289Z" fill="white"/>
</g>
<defs>
<clipPath id="clip0_1003_45097">
<rect x="0.5" width="24" height="24" rx="12" fill="white"/>
</clipPath>
</defs>
</svg>
