                     <svg
                        width="31"
                        height="34"
                        viewBox="0 0 34 34"
                        fill="none"
                        xmlns="http://www.w3.org/2000/svg"
                     >
                        <mask id="path-1-inside-1_1106_54339" fill="white">
                           <path d="M17 0C14.0907 -3.4693e-08 11.2301 0.746629 8.69188 2.16844C6.15368 3.59025 4.02283 5.63967 2.50325 8.12057C0.983666 10.6015 0.126198 13.4309 0.0128967 16.3379C-0.100405 19.245 0.534253 22.1326 1.85614 24.7242C3.17802 27.3159 5.1429 29.5249 7.56274 31.1399C9.98258 32.755 12.7764 33.722 15.6769 33.9484C18.5774 34.1749 21.4874 33.6531 24.1286 32.4332C26.7697 31.2132 29.0536 29.3359 30.7617 26.9808L27.6921 24.7546C26.3651 26.5844 24.5906 28.043 22.5386 28.9908C20.4865 29.9387 18.2255 30.344 15.972 30.1681C13.7185 29.9922 11.5478 29.2408 9.66772 27.986C7.78762 26.7312 6.26101 25.0149 5.23397 23.0013C4.20693 20.9877 3.71384 18.7443 3.80187 16.4856C3.8899 14.2269 4.55611 12.0287 5.73675 10.1011C6.91739 8.17359 8.57295 6.5813 10.545 5.47662C12.5171 4.37194 14.7396 3.79185 17 3.79185V0Z" />
                        </mask>
                        <path
                           d="M17 0C14.0907 -3.4693e-08 11.2301 0.746629 8.69188 2.16844C6.15368 3.59025 4.02283 5.63967 2.50325 8.12057C0.983666 10.6015 0.126198 13.4309 0.0128967 16.3379C-0.100405 19.245 0.534253 22.1326 1.85614 24.7242C3.17802 27.3159 5.1429 29.5249 7.56274 31.1399C9.98258 32.755 12.7764 33.722 15.6769 33.9484C18.5774 34.1749 21.4874 33.6531 24.1286 32.4332C26.7697 31.2132 29.0536 29.3359 30.7617 26.9808L27.6921 24.7546C26.3651 26.5844 24.5906 28.043 22.5386 28.9908C20.4865 29.9387 18.2255 30.344 15.972 30.1681C13.7185 29.9922 11.5478 29.2408 9.66772 27.986C7.78762 26.7312 6.26101 25.0149 5.23397 23.0013C4.20693 20.9877 3.71384 18.7443 3.80187 16.4856C3.8899 14.2269 4.55611 12.0287 5.73675 10.1011C6.91739 8.17359 8.57295 6.5813 10.545 5.47662C12.5171 4.37194 14.7396 3.79185 17 3.79185V0Z"
                           stroke="#B882FF"
                           stroke-width="6"
                           mask="url(#path-1-inside-1_1106_54339)"
                        />
                     </svg>